<svg xmlns="http://www.w3.org/2000/svg" width="1200" height="630" viewBox="0 0 1200 630"><rect width="1200" height="630" fill="#FFF5F6"/>
<rect x="0" y="0" width="1200" height="8" fill="#C9356E"/>
<g transform="translate(70 58) scale(.76)"><rect width="64" height="64" rx="18" fill="#C9356E"/><path d="M29 22a12 12 0 1 0 0 20V32h-8M37 44V20h5c12 0 12 14 0 14h-5m7 0 9 10" fill="none" stroke="white" stroke-width="3" stroke-linecap="round" stroke-linejoin="round"/></g>
<path d="M141.62 88.46Q139.41 88.46 137.87 87.73L137.87 88.82Q137.87 89.81 138.86 90L144.88 91.12Q146.38 91.41 147.60 91.87Q148.82 92.34 149.55 93.18Q150.29 94.03 150.29 95.50Q150.29 97.07 149.26 98.40Q148.24 99.73 146.24 100.54Q144.24 101.36 141.26 101.36Q138.70 101.36 137.20 100.83Q135.70 100.30 135.07 99.47Q134.45 98.64 134.45 97.71Q134.45 96.56 135.23 95.39Q136.02 94.22 137.17 93.52Q136.18 93.14 135.73 92.53Q135.28 91.92 135.28 91.22Q135.28 90.58 135.62 90.02Q135.95 89.46 136.43 88.88L137.49 87.54Q135.15 86.19 135.15 83.31Q135.15 81.01 136.80 79.57Q138.45 78.13 141.65 78.13Q143.28 78.13 144.51 78.51Q145.74 78.90 146.54 79.60Q147.57 79.44 148.48 79.07Q149.39 78.70 150.13 78.06L150.58 78.38L150.58 80.02L146.96 80.02Q148.11 81.30 148.11 83.31Q148.11 85.55 146.46 87.01Q144.82 88.46 141.62 88.46M141.58 87.82Q142.86 87.82 143.46 86.77Q144.05 85.71 144.05 83.25Q144.05 80.78 143.46 79.78Q142.86 78.77 141.65 78.77Q140.46 78.77 139.86 79.81Q139.25 80.85 139.25 83.31Q139.25 85.78 139.81 86.80Q140.37 87.82 141.58 87.82M136.82 96.69Q136.82 98.58 137.98 99.54Q139.15 100.50 141.68 100.50Q144.34 100.50 145.68 99.63Q147.02 98.77 147.02 97.20Q147.02 96.30 146.37 95.76Q145.71 95.22 144.14 94.93L138.35 93.84Q138.10 93.78 137.84 93.71Q137.39 94.35 137.10 95.17Q136.82 95.98 136.82 96.69M156.30 94.48Q154.45 94.48 153.18 93.42Q151.92 92.37 151.92 90.38Q151.92 88.88 153.46 87.62Q154.99 86.35 158.29 85.71Q158.80 85.62 159.44 85.50Q160.08 85.39 160.78 85.26L160.78 82.74Q160.78 80.56 160.26 79.68Q159.73 78.80 158.61 78.80Q157.84 78.80 157.39 79.30Q156.94 79.79 156.82 81.01L156.75 81.36Q156.69 82.74 156.08 83.38Q155.47 84.02 154.58 84.02Q153.74 84.02 153.20 83.50Q152.66 82.99 152.66 82.13Q152.66 80.82 153.57 79.92Q154.48 79.02 155.98 78.58Q157.49 78.13 159.25 78.13Q162.10 78.13 163.65 79.52Q165.20 80.91 165.20 84.05L165.20 91.12Q165.20 92.56 166.54 92.56L167.25 92.56L167.54 92.82Q166.93 93.58 166.21 94Q165.49 94.42 164.18 94.42Q162.77 94.42 161.95 93.76Q161.14 93.10 160.88 92.02Q159.92 93.04 158.91 93.76Q157.90 94.48 156.30 94.48M158.26 92.53Q158.90 92.53 159.46 92.22Q160.02 91.92 160.78 91.28L160.78 85.90Q160.46 85.97 160.14 86.03Q159.82 86.10 159.41 86.16Q157.94 86.54 157.06 87.46Q156.18 88.37 156.18 89.90Q156.18 91.22 156.78 91.87Q157.39 92.53 158.26 92.53M175.73 94L168.21 94L168.21 93.68L168.66 93.55Q169.78 93.23 169.78 91.98L169.78 81.97Q169.78 81.26 169.55 80.93Q169.33 80.59 168.69 80.46L168.21 80.34L168.21 80.02L173.68 78.16L174 78.48L174.26 80.40Q175.38 79.41 176.78 78.77Q178.19 78.13 179.57 78.13Q181.68 78.13 182.82 79.28Q183.95 80.43 183.95 82.80L183.95 92.02Q183.95 93.26 185.17 93.58L185.46 93.68L185.46 94L177.90 94L177.90 93.68L178.32 93.55Q179.44 93.20 179.44 91.98L179.44 81.78Q179.44 79.73 177.39 79.73Q175.98 79.73 174.32 81.14L174.32 92.02Q174.32 93.26 175.44 93.58L175.73 93.68L175.73 94M193.68 88.46Q191.47 88.46 189.94 87.73L189.94 88.82Q189.94 89.81 190.93 90L196.94 91.12Q198.45 91.41 199.66 91.87Q200.88 92.34 201.62 93.18Q202.35 94.03 202.35 95.50Q202.35 97.07 201.33 98.40Q200.30 99.73 198.30 100.54Q196.30 101.36 193.33 101.36Q190.77 101.36 189.26 100.83Q187.76 100.30 187.14 99.47Q186.51 98.64 186.51 97.71Q186.51 96.56 187.30 95.39Q188.08 94.22 189.23 93.52Q188.24 93.14 187.79 92.53Q187.34 91.92 187.34 91.22Q187.34 90.58 187.68 90.02Q188.02 89.46 188.50 88.88L189.55 87.54Q187.22 86.19 187.22 83.31Q187.22 81.01 188.86 79.57Q190.51 78.13 193.71 78.13Q195.34 78.13 196.58 78.51Q197.81 78.90 198.61 79.60Q199.63 79.44 200.54 79.07Q201.46 78.70 202.19 78.06L202.64 78.38L202.64 80.02L199.02 80.02Q200.18 81.30 200.18 83.31Q200.18 85.55 198.53 87.01Q196.88 88.46 193.68 88.46M193.65 87.82Q194.93 87.82 195.52 86.77Q196.11 85.71 196.11 83.25Q196.11 80.78 195.52 79.78Q194.93 78.77 193.71 78.77Q192.53 78.77 191.92 79.81Q191.31 80.85 191.31 83.31Q191.31 85.78 191.87 86.80Q192.43 87.82 193.65 87.82M188.88 96.69Q188.88 98.58 190.05 99.54Q191.22 100.50 193.74 100.50Q196.40 100.50 197.74 99.63Q199.09 98.77 199.09 97.20Q199.09 96.30 198.43 95.76Q197.78 95.22 196.21 94.93L190.42 93.84Q190.16 93.78 189.90 93.71Q189.46 94.35 189.17 95.17Q188.88 95.98 188.88 96.69M211.22 94L203.70 94L203.70 93.68L204.14 93.55Q205.26 93.23 205.26 91.98L205.26 81.97Q205.26 81.26 205.04 80.93Q204.82 80.59 204.18 80.46L203.70 80.34L203.70 80.02L209.17 78.16L209.49 78.48L209.74 80.40Q210.86 79.41 212.27 78.77Q213.68 78.13 215.06 78.13Q217.17 78.13 218.30 79.28Q219.44 80.43 219.44 82.80L219.44 92.02Q219.44 93.26 220.66 93.58L220.94 93.68L220.94 94L213.39 94L213.39 93.68L213.81 93.55Q214.93 93.20 214.93 91.98L214.93 81.78Q214.93 79.73 212.88 79.73Q211.47 79.73 209.81 81.14L209.81 92.02Q209.81 93.26 210.93 93.58L211.22 93.68L211.22 94M226.86 94.48Q225.01 94.48 223.74 93.42Q222.48 92.37 222.48 90.38Q222.48 88.88 224.02 87.62Q225.55 86.35 228.85 85.71Q229.36 85.62 230 85.50Q230.64 85.39 231.34 85.26L231.34 82.74Q231.34 80.56 230.82 79.68Q230.29 78.80 229.17 78.80Q228.40 78.80 227.95 79.30Q227.50 79.79 227.38 81.01L227.31 81.36Q227.25 82.74 226.64 83.38Q226.03 84.02 225.14 84.02Q224.30 84.02 223.76 83.50Q223.22 82.99 223.22 82.13Q223.22 80.82 224.13 79.92Q225.04 79.02 226.54 78.58Q228.05 78.13 229.81 78.13Q232.66 78.13 234.21 79.52Q235.76 80.91 235.76 84.05L235.76 91.12Q235.76 92.56 237.10 92.56L237.81 92.56L238.10 92.82Q237.49 93.58 236.77 94Q236.05 94.42 234.74 94.42Q233.33 94.42 232.51 93.76Q231.70 93.10 231.44 92.02Q230.48 93.04 229.47 93.76Q228.46 94.48 226.86 94.48M228.82 92.53Q229.46 92.53 230.02 92.22Q230.58 91.92 231.34 91.28L231.34 85.90Q231.02 85.97 230.70 86.03Q230.38 86.10 229.97 86.16Q228.50 86.54 227.62 87.46Q226.74 88.37 226.74 89.90Q226.74 91.22 227.34 91.87Q227.95 92.53 228.82 92.53M246.29 94L238.77 94L238.77 93.68L239.22 93.55Q239.82 93.39 240.06 93.01Q240.30 92.62 240.34 91.98L240.34 81.97Q240.34 81.26 240.11 80.93Q239.89 80.59 239.25 80.46L238.77 80.34L238.77 80.02L244.24 78.16L244.56 78.48L244.82 80.66Q245.87 79.60 247.23 78.86Q248.59 78.13 250.06 78.13Q251.60 78.13 252.53 78.75Q253.46 79.38 253.94 80.69Q255.18 79.50 256.64 78.82Q258.10 78.13 259.47 78.13Q261.74 78.13 262.82 79.22Q263.89 80.30 263.89 82.64L263.89 92.02Q263.89 93.26 265.04 93.58L265.39 93.68L265.39 94L258 94L258 93.68L258.32 93.58Q258.93 93.39 259.17 93.01Q259.41 92.62 259.41 91.98L259.41 82.19Q259.41 80.85 258.93 80.35Q258.45 79.86 257.39 79.86Q256.56 79.86 255.78 80.22Q254.99 80.59 254.13 81.33Q254.29 81.84 254.34 82.45Q254.38 83.06 254.38 83.73L254.38 92.02Q254.42 93.26 255.54 93.58L255.82 93.68L255.82 94L248.40 94L248.40 93.68L248.85 93.55Q249.46 93.36 249.70 92.99Q249.94 92.62 249.94 91.98L249.94 82.22Q249.94 80.94 249.47 80.40Q249.01 79.86 247.89 79.86Q247.15 79.86 246.42 80.22Q245.68 80.59 244.88 81.30L244.88 92.02Q244.88 93.26 246 93.58L246.29 93.68L246.29 94M281.90 94L273.62 94L273.62 93.68L274.10 93.55Q274.74 93.36 274.98 92.98Q275.22 92.59 275.22 91.98L275.22 81.97Q275.22 81.26 274.98 80.93Q274.74 80.59 274.10 80.46L273.62 80.34L273.62 80.02L279.12 78.16L279.44 78.48L279.73 81.23L279.73 81.49Q280.18 80.59 280.90 79.84Q281.62 79.09 282.50 78.61Q283.38 78.13 284.24 78.13Q285.46 78.13 286.10 78.80Q286.74 79.47 286.74 80.50Q286.74 81.58 286.11 82.18Q285.49 82.77 284.62 82.77Q283.28 82.77 282.26 81.42L282.19 81.36Q281.87 80.91 281.46 80.86Q281.04 80.82 280.69 81.26Q280.37 81.55 280.16 81.95Q279.95 82.35 279.76 82.86L279.76 91.79Q279.76 93.07 280.88 93.39L281.90 93.68L281.90 94M295.76 78.13Q297.84 78.13 299.31 78.98Q300.78 79.82 301.57 81.28Q302.35 82.74 302.35 84.59Q302.35 84.94 302.32 85.31Q302.29 85.68 302.19 85.97L292.66 85.97Q292.69 89.42 293.89 90.94Q295.09 92.46 297.46 92.46Q299.06 92.46 300.05 91.95Q301.04 91.44 301.90 90.45L302.22 90.74Q301.23 92.50 299.58 93.49Q297.94 94.48 295.63 94.48Q293.36 94.48 291.60 93.50Q289.84 92.53 288.85 90.70Q287.86 88.88 287.86 86.35Q287.86 83.73 289.01 81.89Q290.16 80.05 291.97 79.09Q293.78 78.13 295.76 78.13M295.66 78.77Q294.74 78.77 294.08 79.33Q293.42 79.89 293.06 81.31Q292.69 82.74 292.66 85.33L298.13 85.33Q298.45 81.84 297.87 80.30Q297.30 78.77 295.66 78.77M312.98 94.10L311.12 94.10L305.46 80.50Q305.01 79.41 303.92 79.06L303.47 78.93L303.47 78.61L311.76 78.61L311.76 78.93L311.18 79.06Q309.94 79.38 310.42 80.72L313.78 89.65L316.91 80.78Q317.17 80.14 317.04 79.73Q316.91 79.31 316.27 79.12L315.47 78.93L315.47 78.61L320.11 78.61L320.11 78.93L319.18 79.15Q318.58 79.31 318.24 79.63Q317.90 79.95 317.68 80.59L312.98 94.10M324.75 76.46Q323.66 76.46 322.91 75.78Q322.16 75.09 322.16 74.03Q322.16 72.94 322.91 72.27Q323.66 71.60 324.75 71.60Q325.84 71.60 326.58 72.27Q327.31 72.94 327.31 74.03Q327.31 75.09 326.58 75.78Q325.84 76.46 324.75 76.46M328.46 94L320.98 94L320.98 93.68L321.42 93.55Q322.06 93.36 322.30 92.98Q322.54 92.59 322.54 91.95L322.54 81.94Q322.54 81.26 322.30 80.93Q322.06 80.59 321.42 80.46L320.98 80.37L320.98 80.05L326.83 78.16L327.15 78.48L327.06 83.02L327.06 91.98Q327.06 92.62 327.30 93.01Q327.54 93.39 328.14 93.58L328.46 93.68L328.46 94M337.90 78.13Q339.98 78.13 341.46 78.98Q342.93 79.82 343.71 81.28Q344.50 82.74 344.50 84.59Q344.50 84.94 344.46 85.31Q344.43 85.68 344.34 85.97L334.80 85.97Q334.83 89.42 336.03 90.94Q337.23 92.46 339.60 92.46Q341.20 92.46 342.19 91.95Q343.18 91.44 344.05 90.45L344.37 90.74Q343.38 92.50 341.73 93.49Q340.08 94.48 337.78 94.48Q335.50 94.48 333.74 93.50Q331.98 92.53 330.99 90.70Q330 88.88 330 86.35Q330 83.73 331.15 81.89Q332.30 80.05 334.11 79.09Q335.92 78.13 337.90 78.13M337.81 78.77Q336.88 78.77 336.22 79.33Q335.57 79.89 335.20 81.31Q334.83 82.74 334.80 85.33L340.27 85.33Q340.59 81.84 340.02 80.30Q339.44 78.77 337.81 78.77M354.51 94.10L352.66 94.10L347.73 80.56Q347.38 79.54 346.32 79.12L345.78 78.93L345.78 78.61L353.62 78.61L353.62 78.93L353.14 79.06Q351.89 79.44 352.30 80.59L355.28 89.65L357.94 82.61L357.33 80.78Q357.10 80.08 356.86 79.71Q356.62 79.34 356.24 79.18L355.70 78.93L355.70 78.61L362.32 78.61L362.32 78.93L361.87 79.12Q361.39 79.31 361.30 79.63Q361.20 79.95 361.42 80.59L364.37 89.49L367.41 80.66Q367.86 79.44 366.93 79.12L366.22 78.93L366.22 78.61L370.06 78.61L370.06 78.93L369.30 79.15Q368.75 79.31 368.51 79.65Q368.27 79.98 368.08 80.56L363.47 94.10L361.84 94.10L358.29 83.63" fill="#1A1A2E"/>
<path d="M78.60 188L77.24 188L77.24 179.92L74.13 179.92L74.13 178.64L81.72 178.64L81.72 179.92L78.60 179.92L78.60 188M84.11 188L82.76 188L82.76 178.64L84.11 178.64L84.11 182.68L88.79 182.68L88.79 178.64L90.16 178.64L90.16 188L88.79 188L88.79 183.96L84.11 183.96L84.11 188M97.96 188L91.98 188L91.98 178.64L97.96 178.64L97.96 179.92L93.34 179.92L93.34 182.55L97.18 182.55L97.18 183.83L93.34 183.83L93.34 186.72L97.96 186.72L97.96 188M108.10 188L102.12 188L102.12 178.64L108.10 178.64L108.10 179.92L103.48 179.92L103.48 182.55L107.32 182.55L107.32 183.83L103.48 183.83L103.48 186.72L108.10 186.72L108.10 188M113.81 188L111.86 188L108.81 178.64L110.22 178.64L112.82 186.63L115.44 178.64L116.85 178.64L113.81 188M119.32 188L117.96 188L117.96 178.64L119.32 178.64L119.32 188M124.20 188L121.27 188L121.27 178.64L124.20 178.64Q124.33 178.64 124.68 178.65Q125.04 178.65 125.36 178.70Q126.46 178.84 127.21 179.49Q127.96 180.13 128.35 181.13Q128.73 182.13 128.73 183.32Q128.73 184.52 128.35 185.51Q127.96 186.51 127.21 187.16Q126.46 187.81 125.36 187.94Q125.04 187.99 124.68 187.99Q124.33 188 124.20 188M122.66 179.93L122.66 186.71L124.20 186.71Q124.42 186.71 124.73 186.69Q125.03 186.68 125.27 186.64Q125.98 186.50 126.43 186.02Q126.87 185.54 127.08 184.83Q127.29 184.12 127.29 183.32Q127.29 182.49 127.07 181.79Q126.86 181.08 126.41 180.61Q125.97 180.13 125.27 180Q125.03 179.95 124.72 179.94Q124.41 179.93 124.20 179.93L122.66 179.93M136.22 188L130.24 188L130.24 178.64L136.22 178.64L136.22 179.92L131.60 179.92L131.60 182.55L135.44 182.55L135.44 183.83L131.60 183.83L131.60 186.72L136.22 186.72L136.22 188M139.16 188L137.78 188L137.78 178.64L139.16 178.64L143.77 185.59L143.77 178.64L145.15 178.64L145.15 188L143.77 188L139.16 181.04L139.16 188M150.88 188.19Q149.47 188.19 148.48 187.58Q147.50 186.97 146.97 185.87Q146.45 184.77 146.45 183.32Q146.45 181.87 146.97 180.77Q147.50 179.67 148.48 179.06Q149.47 178.44 150.88 178.44Q152.49 178.44 153.56 179.26Q154.62 180.08 155.04 181.47L153.66 181.84Q153.38 180.86 152.69 180.30Q151.99 179.74 150.88 179.74Q149.88 179.74 149.22 180.19Q148.56 180.64 148.22 181.44Q147.89 182.25 147.89 183.32Q147.88 184.39 148.21 185.20Q148.55 186 149.21 186.45Q149.88 186.90 150.88 186.90Q151.99 186.90 152.69 186.34Q153.38 185.78 153.66 184.80L155.04 185.17Q154.62 186.56 153.56 187.38Q152.49 188.19 150.88 188.19M162.45 188L156.47 188L156.47 178.64L162.45 178.64L162.45 179.92L157.82 179.92L157.82 182.55L161.67 182.55L161.67 183.83L157.82 183.83L157.82 186.72L162.45 186.72L162.45 188M163.88 189.55L163.96 188.95Q164.24 188.97 164.40 188.84Q164.55 188.72 164.60 188.50Q164.66 188.28 164.62 188L163.88 188L163.88 186.43L165.31 186.43L165.31 188.13Q165.31 188.90 164.94 189.29Q164.58 189.68 163.88 189.55M171.87 188L170.51 188L170.51 178.64L171.87 178.64L171.87 188M175.20 188L173.82 188L173.82 178.64L175.20 178.64L179.81 185.59L179.81 178.64L181.19 178.64L181.19 188L179.81 188L175.20 181.04L175.20 188M186.96 188L185.61 188L185.61 178.64L191.15 178.64L191.15 180L186.96 180L186.96 182.64L190.37 182.64L190.37 184L186.96 184L186.96 188M196.23 188.19Q194.82 188.19 193.83 187.58Q192.85 186.97 192.32 185.87Q191.80 184.77 191.80 183.32Q191.80 181.87 192.32 180.77Q192.85 179.67 193.83 179.06Q194.82 178.44 196.23 178.44Q197.62 178.44 198.61 179.06Q199.61 179.67 200.13 180.77Q200.65 181.87 200.65 183.32Q200.65 184.77 200.13 185.87Q199.61 186.97 198.61 187.58Q197.62 188.19 196.23 188.19M196.23 186.90Q197.22 186.91 197.88 186.46Q198.54 186.01 198.87 185.20Q199.20 184.39 199.20 183.32Q199.20 182.25 198.87 181.44Q198.54 180.64 197.88 180.19Q197.22 179.75 196.23 179.74Q195.23 179.73 194.57 180.17Q193.91 180.62 193.58 181.44Q193.25 182.25 193.24 183.32Q193.24 184.39 193.57 185.20Q193.90 186 194.57 186.45Q195.23 186.90 196.23 186.90M205.85 188.19Q204.45 188.19 203.46 187.58Q202.47 186.97 201.95 185.87Q201.43 184.77 201.43 183.32Q201.43 181.87 201.95 180.77Q202.47 179.67 203.46 179.06Q204.45 178.44 205.85 178.44Q207.47 178.44 208.53 179.26Q209.60 180.08 210.01 181.47L208.63 181.84Q208.36 180.86 207.66 180.30Q206.96 179.74 205.85 179.74Q204.86 179.74 204.20 180.19Q203.53 180.64 203.20 181.44Q202.86 182.25 202.86 183.32Q202.86 184.39 203.19 185.20Q203.53 186 204.19 186.45Q204.86 186.90 205.85 186.90Q206.96 186.90 207.66 186.34Q208.36 185.78 208.63 184.80L210.01 185.17Q209.60 186.56 208.53 187.38Q207.47 188.19 205.85 188.19M215.17 188.19Q214.08 188.19 213.23 187.74Q212.39 187.29 211.92 186.48Q211.44 185.66 211.44 184.56L211.44 178.65L212.82 178.64L212.82 184.48Q212.82 185.08 213.02 185.54Q213.22 185.99 213.56 186.30Q213.90 186.60 214.32 186.76Q214.74 186.91 215.17 186.91Q215.62 186.91 216.03 186.76Q216.45 186.60 216.79 186.29Q217.13 185.99 217.33 185.53Q217.53 185.07 217.53 184.48L217.53 178.64L218.90 178.64L218.90 184.56Q218.90 185.65 218.43 186.47Q217.96 187.29 217.11 187.74Q216.27 188.19 215.17 188.19M223.73 188.19Q222.72 188.19 221.91 187.85Q221.10 187.50 220.58 186.85Q220.06 186.21 219.90 185.32L221.32 185.10Q221.53 185.96 222.21 186.44Q222.90 186.91 223.81 186.91Q224.37 186.91 224.85 186.74Q225.32 186.56 225.61 186.22Q225.90 185.89 225.90 185.42Q225.90 185.17 225.81 184.97Q225.72 184.78 225.57 184.63Q225.42 184.48 225.20 184.38Q224.98 184.27 224.72 184.19L222.32 183.48Q221.97 183.38 221.61 183.21Q221.24 183.05 220.94 182.78Q220.64 182.51 220.45 182.11Q220.26 181.71 220.26 181.14Q220.26 180.27 220.71 179.67Q221.15 179.07 221.91 178.76Q222.67 178.45 223.62 178.45Q224.57 178.46 225.32 178.79Q226.07 179.11 226.56 179.72Q227.06 180.33 227.25 181.19L225.79 181.44Q225.70 180.91 225.38 180.53Q225.06 180.15 224.60 179.95Q224.14 179.75 223.60 179.74Q223.08 179.73 222.65 179.89Q222.21 180.06 221.96 180.37Q221.70 180.67 221.70 181.07Q221.70 181.46 221.93 181.70Q222.15 181.94 222.49 182.08Q222.82 182.22 223.16 182.31L224.88 182.80Q225.21 182.89 225.62 183.04Q226.04 183.20 226.42 183.47Q226.81 183.74 227.06 184.19Q227.32 184.65 227.32 185.33Q227.32 186.04 227.03 186.57Q226.74 187.11 226.25 187.47Q225.75 187.83 225.10 188.01Q224.45 188.19 223.73 188.19" fill="#A02555"/>
<path d="M132.06 293.91Q132.52 293.91 132.52 294.45Q132.52 295 132.06 295Q129.43 295 126.65 294.82Q123.87 294.64 121.23 294.64Q118.32 294.64 116.18 294.82Q114.05 295 111.41 295Q111.04 295 111.04 294.45Q111.04 293.91 111.41 293.91Q115.87 293.91 116.87 292.50Q117.87 291.09 115.87 286.90L108.31 271.25L86.56 271.25L81.47 282.99Q79.10 288.54 81.19 291.22Q83.29 293.91 89.02 293.91Q89.48 293.91 89.48 294.45Q89.48 295 89.02 295Q86.29 295 84.02 294.82Q81.74 294.64 78.28 294.64Q74.92 294.64 72.87 294.82Q70.82 295 67.91 295Q67.55 295 67.55 294.45Q67.55 293.91 67.91 293.91Q70.37 293.91 72.19 292.95Q74.01 292 75.69 289.45Q77.37 286.90 79.38 282.17L98.76 237.49Q98.85 237.22 99.39 237.17Q99.94 237.12 100.03 237.49L121.87 282.53Q124.06 286.99 125.65 289.49Q127.24 292 128.79 292.95Q130.34 293.91 132.06 293.91M87.38 269.25L107.40 269.25L96.85 247.32L87.38 269.25M174.65 296.09Q168.37 296.09 164.41 293.41Q160.46 290.72 158.59 286.58Q156.72 282.44 156.72 278.17Q156.72 273.62 158.54 270.07Q160.36 266.52 163.32 264.06Q166.28 261.60 169.92 260.33Q173.56 259.06 177.11 259.06Q179.66 259.06 182.16 259.78Q184.66 260.51 186.30 261.83Q187.94 263.15 187.94 264.97Q187.94 266.24 186.98 267.29Q186.03 268.34 184.21 268.34Q182.48 268.34 181.39 267.34Q180.29 266.33 179.66 264.79Q178.84 262.97 177.66 261.92Q176.47 260.88 173.92 260.88Q169.10 260.88 166.42 264.88Q163.73 268.88 163.73 275.34Q163.73 279.89 165.28 283.85Q166.83 287.81 170.10 290.18Q173.38 292.54 178.66 292.54Q181.20 292.54 183.43 291.86Q185.66 291.18 187.76 289.72Q188.03 289.54 188.39 289.90Q188.57 290.18 188.48 290.27Q188.48 290.36 188.39 290.45Q185.30 293.27 182.02 294.68Q178.75 296.09 174.65 296.09M194.76 295Q194.58 295 194.58 294.45Q194.58 293.91 194.76 293.91Q198.13 293.91 199.18 292.68Q200.22 291.45 200.22 287.63L200.31 240.86Q200.31 237.67 199.72 236.21Q199.13 234.76 197.49 234.76Q196.13 234.76 193.58 235.94Q193.49 236.03 193.40 235.94Q193.13 235.94 193.03 235.58Q192.85 235.12 192.94 235.03Q192.94 234.94 193.03 234.94L205.23 229.12Q205.41 229.03 205.59 229.03Q205.87 229.03 206.27 229.30Q206.68 229.57 206.68 229.94L206.68 287.63Q206.68 291.36 207.69 292.63Q208.69 293.91 212.05 293.91Q212.42 293.91 212.42 294.45Q212.42 295 212.05 295Q210.42 295 208.19 294.91Q205.96 294.82 203.41 294.82Q200.95 294.82 198.72 294.91Q196.49 295 194.76 295M235.44 296.09Q229.80 296.09 225.98 293.59Q222.15 291.09 220.20 287.08Q218.24 283.08 218.24 278.53Q218.24 273.07 220.83 268.66Q223.43 264.24 227.89 261.65Q232.35 259.06 237.81 259.06Q243.08 259.06 245.95 261.69Q248.82 264.33 248.82 269.43Q248.82 270.61 248.59 271.29Q248.36 271.98 247.73 271.98L243.45 271.98L225.43 272.07Q225.25 273.43 225.25 274.98Q225.25 280.17 226.89 284.13Q228.52 288.08 231.71 290.27Q234.89 292.45 239.44 292.45Q242.45 292.45 244.40 291.63Q246.36 290.81 248.45 289.63Q248.45 289.63 248.54 289.54Q248.73 289.54 249 289.81Q249.27 290.27 249.09 290.54Q245.81 293.54 242.45 294.82Q239.08 296.09 235.44 296.09M225.61 270.70L241.54 270.34Q241.54 266.06 240.08 263.70Q238.26 260.88 234.71 260.88Q230.25 260.88 227.80 264.70Q226.16 267.15 225.61 270.70M290.22 291.09L280.85 295.55Q280.49 295.73 280.03 295.73Q278.66 295.73 277.48 293.63Q276.57 292.27 276.30 289.90L271.84 292.82Q269.75 294.36 267.97 295Q266.20 295.64 264.11 295.64Q260.46 295.64 258.60 293.82Q256.73 292 256.73 289.27Q256.73 287.08 257.92 285.58Q259.10 284.08 261.33 282.90Q263.56 281.71 266.74 280.53L276.21 277.07L276.21 271.16Q276.21 265.52 274.80 263.10Q273.39 260.69 270.93 260.69Q268.65 260.69 267.29 261.92Q265.93 263.15 265.33 264.74Q264.74 266.33 264.47 267.70Q264.29 269.43 263.42 270.61Q262.56 271.80 260.56 271.80Q258.74 271.80 257.92 270.88Q257.10 269.98 257.10 268.88Q257.10 266.97 258.87 265.24Q260.65 263.51 263.38 262.06Q266.11 260.60 269.06 259.78Q272.02 258.96 274.39 258.96Q278.12 258.96 280.26 261.38Q282.40 263.79 282.40 268.43L282.40 285.17Q282.40 288.18 283.21 289.63Q284.03 291.09 285.85 291.09Q287.40 291.09 289.86 290.09Q289.95 290 290.13 290.09Q290.31 290.09 290.50 290.36Q290.59 290.72 290.50 290.90Q290.40 291 290.22 291.09M272.93 290.54L276.21 288.45Q276.21 288.18 276.21 287.81L276.21 278.35L269.11 281.26Q267.75 281.81 266.61 282.53Q265.47 283.26 264.74 284.31Q264.01 285.35 264.01 286.81Q264.01 288.99 265.47 290.40Q266.93 291.81 269.02 291.81Q269.84 291.81 270.75 291.54Q271.66 291.27 272.93 290.54M294.23 295Q293.95 295 293.95 294.45Q293.95 293.91 294.23 293.91Q297.50 293.91 298.55 292.68Q299.59 291.45 299.59 287.63L299.59 269.88Q299.59 266.97 298.91 265.61Q298.23 264.24 296.59 264.24Q295.68 264.24 294.50 264.56Q293.32 264.88 291.77 265.52Q291.59 265.61 291.50 265.52Q291.31 265.52 291.22 265.15Q291.04 264.70 291.31 264.51L302.51 259.15Q302.87 259.06 303.05 259.06Q303.87 259.06 304.87 261.06Q305.78 262.97 305.87 266.33Q307.69 264.33 309.06 262.97Q311.33 260.78 312.97 259.92Q314.61 259.06 316.07 259.06Q317.98 259.06 319.89 260.24Q321.80 261.42 321.80 263.24Q321.80 264.61 320.89 265.56Q319.98 266.52 318.43 266.52Q316.98 266.52 316.11 265.70Q315.25 264.88 314.38 264.11Q313.52 263.33 312.06 263.33Q311.33 263.33 310.42 263.79Q309.51 264.24 308.06 265.70Q307.15 266.61 305.87 268.06L305.87 287.63Q305.87 290.18 306.56 291.54Q307.24 292.91 309.10 293.41Q310.97 293.91 314.52 293.91Q314.79 293.91 314.79 294.45Q314.79 295 314.52 295Q312.15 295 309.15 294.91Q306.15 294.82 302.78 294.82Q300.32 294.82 298.09 294.91Q295.86 295 294.23 295M343.18 296.09Q337.54 296.09 333.72 293.59Q329.90 291.09 327.94 287.08Q325.99 283.08 325.99 278.53Q325.99 273.07 328.58 268.66Q331.17 264.24 335.63 261.65Q340.09 259.06 345.55 259.06Q350.83 259.06 353.69 261.69Q356.56 264.33 356.56 269.43Q356.56 270.61 356.33 271.29Q356.11 271.98 355.47 271.98L351.19 271.98L333.17 272.07Q332.99 273.43 332.99 274.98Q332.99 280.17 334.63 284.13Q336.27 288.08 339.45 290.27Q342.64 292.45 347.19 292.45Q350.19 292.45 352.15 291.63Q354.10 290.81 356.20 289.63Q356.20 289.63 356.29 289.54Q356.47 289.54 356.74 289.81Q357.02 290.27 356.83 290.54Q353.56 293.54 350.19 294.82Q346.82 296.09 343.18 296.09M333.36 270.70L349.28 270.34Q349.28 266.06 347.82 263.70Q346 260.88 342.46 260.88Q338 260.88 335.54 264.70Q333.90 267.15 333.36 270.70M364.11 295Q363.84 295 363.84 294.45Q363.84 293.91 364.11 293.91Q367.39 293.91 368.44 292.68Q369.48 291.45 369.48 287.63L369.48 269.88Q369.48 266.97 368.80 265.61Q368.12 264.24 366.48 264.24Q365.57 264.24 364.39 264.56Q363.20 264.88 361.66 265.52Q361.48 265.61 361.38 265.52Q361.20 265.52 361.11 265.15Q360.93 264.70 361.20 264.51L372.40 259.15Q372.76 259.06 372.94 259.06Q373.76 259.06 374.76 261.06Q375.67 262.97 375.76 266.33Q377.58 264.33 378.95 262.97Q381.22 260.78 382.86 259.92Q384.50 259.06 385.95 259.06Q387.87 259.06 389.78 260.24Q391.69 261.42 391.69 263.24Q391.69 264.61 390.78 265.56Q389.87 266.52 388.32 266.52Q386.86 266.52 386 265.70Q385.14 264.88 384.27 264.11Q383.41 263.33 381.95 263.33Q381.22 263.33 380.31 263.79Q379.40 264.24 377.95 265.70Q377.04 266.61 375.76 268.06L375.76 287.63Q375.76 290.18 376.44 291.54Q377.13 292.91 378.99 293.41Q380.86 293.91 384.41 293.91Q384.68 293.91 384.68 294.45Q384.68 295 384.41 295Q382.04 295 379.04 294.91Q376.04 294.82 372.67 294.82Q370.21 294.82 367.98 294.91Q365.75 295 364.11 295M454.93 259.87Q455.11 259.87 455.11 260.42Q455.11 260.97 454.93 260.97Q452.57 260.97 450.84 262.56Q449.11 264.15 447.47 268.06L436.19 294.91Q436 295.36 435.19 295.36Q434.37 295.36 434.18 294.91L420.99 267.43Q419.08 263.33 417.80 262.15Q416.53 260.97 414.71 260.97Q414.44 260.97 414.44 260.42Q414.44 259.87 414.71 259.87Q416.07 259.87 417.80 259.97Q419.53 260.06 421.72 260.06Q425.08 260.06 427.45 259.97Q429.82 259.87 431.82 259.87Q432.09 259.87 432.09 260.42Q432.09 260.97 431.82 260.97Q429 260.97 427.45 261.60Q426.81 261.88 426.63 262.33Q426.18 263.06 426.81 264.51L437.64 286.63L445.47 267.79Q446.83 264.33 445.29 262.65Q443.74 260.97 439.28 260.97Q439.10 260.97 439.10 260.42Q439.10 259.87 439.28 259.87Q441.46 259.87 443.42 259.97Q445.38 260.06 448.47 260.06Q450.47 260.06 451.79 259.97Q453.11 259.87 454.93 259.87M459.21 295Q458.94 295 458.94 294.45Q458.94 293.91 459.21 293.91Q462.49 293.91 463.58 292.68Q464.67 291.45 464.67 287.63L464.67 270.88Q464.67 267.70 464.03 266.24Q463.39 264.79 461.76 264.79Q461.03 264.79 460.07 265.06Q459.12 265.33 457.84 265.97Q457.48 266.06 457.25 265.56Q457.02 265.06 457.39 264.88L469.76 259.15Q470.04 259.06 470.13 259.06Q470.40 259.06 470.72 259.33Q471.04 259.60 471.04 259.97Q471.04 260.78 470.95 263.51Q470.86 266.24 470.86 270.70L470.86 287.63Q470.86 291.45 471.90 292.68Q472.95 293.91 476.32 293.91Q476.59 293.91 476.59 294.45Q476.59 295 476.32 295Q474.68 295 472.45 294.91Q470.22 294.82 467.76 294.82Q465.31 294.82 463.12 294.91Q460.94 295 459.21 295M467.22 248.86Q465.12 248.86 463.90 247.73Q462.67 246.59 462.67 244.50Q462.67 242.49 463.90 241.40Q465.12 240.31 467.22 240.31Q469.22 240.31 470.36 241.40Q471.49 242.49 471.49 244.50Q471.49 248.86 467.22 248.86M499.70 296.09Q494.06 296.09 490.24 293.59Q486.42 291.09 484.46 287.08Q482.50 283.08 482.50 278.53Q482.50 273.07 485.10 268.66Q487.69 264.24 492.15 261.65Q496.61 259.06 502.07 259.06Q507.35 259.06 510.21 261.69Q513.08 264.33 513.08 269.43Q513.08 270.61 512.85 271.29Q512.63 271.98 511.99 271.98L507.71 271.98L489.69 272.07Q489.51 273.43 489.51 274.98Q489.51 280.17 491.15 284.13Q492.79 288.08 495.97 290.27Q499.16 292.45 503.71 292.45Q506.71 292.45 508.67 291.63Q510.62 290.81 512.72 289.63Q512.72 289.63 512.81 289.54Q512.99 289.54 513.26 289.81Q513.54 290.27 513.35 290.54Q510.08 293.54 506.71 294.82Q503.34 296.09 499.70 296.09M489.88 270.70L505.80 270.34Q505.80 266.06 504.34 263.70Q502.52 260.88 498.98 260.88Q494.52 260.88 492.06 264.70Q490.42 267.15 489.88 270.70M557.58 294.91L547.12 272.89L537.83 294.91Q537.74 295.27 536.88 295.27Q536.01 295.27 535.83 294.91L522.64 267.43Q520.73 263.33 519.45 262.15Q518.18 260.97 516.36 260.97Q516.08 260.97 516.08 260.42Q516.08 259.87 516.36 259.87Q517.72 259.87 519.45 259.97Q521.18 260.06 523.36 260.06Q526.46 260.06 528.73 259.97Q531.01 259.87 533.01 259.87Q533.28 259.87 533.28 260.42Q533.28 260.97 533.01 260.97Q530.37 260.97 528.87 261.69Q527.37 262.42 528.37 264.51L539.29 286.63L545.93 270.52L544.48 267.43Q542.57 263.42 541.43 262.19Q540.29 260.97 538.56 260.97Q538.38 260.97 538.38 260.42Q538.38 259.87 538.56 259.87Q539.93 259.87 541.52 259.97Q543.11 260.06 545.20 260.06Q548.30 260.06 550.62 259.97Q552.94 259.87 554.76 259.87Q555.03 259.87 555.03 260.42Q555.03 260.97 554.76 260.97Q552.21 260.97 550.75 261.74Q549.30 262.51 550.30 264.51L561.04 286.72L568.86 267.79Q570.23 264.33 568.68 262.65Q567.13 260.97 562.77 260.97Q562.49 260.97 562.49 260.42Q562.49 259.87 562.77 259.87Q564.86 259.87 566.82 259.97Q568.77 260.06 571.87 260.06Q573.96 260.06 575.23 259.97Q576.51 259.87 578.24 259.87Q578.51 259.87 578.51 260.42Q578.51 260.97 578.24 260.97Q575.96 260.97 574.23 262.56Q572.50 264.15 570.87 268.06L559.58 294.91Q559.40 295.27 558.58 295.27Q557.76 295.27 557.58 294.91M620.64 296.18Q615.09 296.18 611.04 293.54Q606.99 290.90 604.81 286.49Q602.62 282.08 602.62 276.98Q602.62 272.25 604.40 268.79Q606.17 265.33 609.09 263.10Q612 260.88 615.46 259.78Q618.91 258.69 622.28 258.69Q627.92 258.69 631.93 261.42Q635.93 264.15 638.07 268.43Q640.21 272.70 640.21 277.44Q640.21 283.17 637.48 287.40Q634.75 291.63 630.33 293.91Q625.92 296.18 620.64 296.18M623.28 294.45Q627.74 294.45 630.24 290.95Q632.75 287.45 632.75 280.26Q632.75 274.16 630.93 269.75Q629.11 265.33 626.06 262.92Q623.01 260.51 619.19 260.51Q614.73 260.51 612.32 263.92Q609.90 267.34 609.90 273.98Q609.90 279.71 611.63 284.40Q613.36 289.08 616.37 291.77Q619.37 294.45 623.28 294.45M646.03 295Q645.76 295 645.76 294.45Q645.76 293.91 646.03 293.91Q649.85 293.91 650.95 292.73Q652.04 291.54 652.04 287.63L652.04 267.15Q652.04 264.97 651.58 263.97Q651.13 262.97 649.76 262.65Q648.40 262.33 645.67 262.33Q645.39 262.33 645.39 261.69Q645.39 261.06 645.67 261.06Q649.31 261.06 650.58 260.15Q651.86 259.24 651.95 256.96Q652.40 241.86 657.54 235.40Q662.68 228.93 672.33 228.93Q677.24 228.93 680.11 230.34Q682.98 231.75 682.98 233.94Q682.98 235.58 681.84 236.44Q680.70 237.31 679.34 237.31Q677.79 237.31 676.97 236.53Q676.15 235.76 675.24 234.49Q674.15 232.76 672.79 231.71Q671.42 230.66 669.05 230.66Q664.41 230.66 661.37 236.40Q658.32 242.13 658.32 255.05L658.32 260.88Q660.41 260.78 662.41 260.60Q665.78 260.33 669.51 259.97Q669.78 259.97 669.96 260.60Q670.15 261.24 670.15 262.06Q670.15 262.79 669.83 263.61Q669.51 264.42 669.24 264.33Q665.69 263.51 662.50 263.24Q660.50 263.06 658.32 262.97L658.32 287.63Q658.32 290.27 658.91 291.63Q659.50 293 661.37 293.45Q663.23 293.91 667.05 293.91Q667.33 293.91 667.33 294.45Q667.33 295 667.05 295Q663.96 295 661.05 294.91Q658.13 294.82 655.13 294.82Q652.58 294.82 650.26 294.91Q647.94 295 646.03 295" fill="#1A1A2E"/>
<path d="M83.39 392.18Q78 392.18 74.96 389.43Q71.92 386.69 70.99 382.28Q70.06 377.87 70.94 372.87Q71.63 369.15 73.68 365.42Q75.74 361.70 78.78 358.66Q81.82 355.62 85.64 353.76Q89.46 351.90 93.77 351.90Q97.50 351.90 99.31 353.32Q101.12 354.74 100.83 357.19Q100.44 359.54 98.14 361.80Q95.83 364.05 92.21 365.81Q88.58 367.58 84.07 368.85Q81.03 369.73 78 370.22Q77.11 375.12 77.90 379.14Q78.68 383.45 81.13 386Q83.58 388.55 87.70 388.55Q89.95 388.55 92.45 387.86Q94.95 387.18 97.30 385.32Q97.30 385.32 97.40 385.22Q97.60 385.22 97.89 385.51Q98.18 385.90 97.99 386.20Q94.26 389.43 90.59 390.80Q86.91 392.18 83.39 392.18M78.29 368.75Q83.48 367.68 87.40 365.81Q92.40 363.46 93.19 359.25Q93.77 356.80 92.45 355.67Q91.13 354.54 89.17 354.54Q86.23 354.54 83.97 356.60Q81.72 358.66 80.25 362.09Q78.98 365.13 78.29 368.75M120.23 392.27Q117.10 392.27 114.89 390.41Q112.69 388.55 111.71 385.56Q110.73 382.57 111.02 379.34Q111.61 375.03 113.91 370.47Q116.22 365.91 118.27 361.50Q118.86 360.13 118.72 359.49Q118.57 358.86 117.49 358.86L112.59 358.86Q110.14 358.86 108.82 359.25Q107.49 359.64 106.71 360.72Q105.93 361.80 105.24 363.76Q105.04 364.15 104.55 363.95Q104.26 363.95 104.16 363.76Q104.06 363.56 104.16 363.36Q105.63 359.15 106.76 356.94Q107.89 354.74 109.55 353.91Q111.22 353.07 114.06 353.07L122.88 353.07Q123.76 353.07 123.91 353.27Q124.06 353.47 123.66 354.25Q121.51 359.15 119.50 364.79Q117.49 370.42 117 374.63Q116.22 380.22 118.18 383.40Q120.14 386.59 123.66 386.59Q126.60 386.59 129.35 384.78Q132.09 382.96 134.30 379.63Q136.50 376.30 137.48 371.79Q138.36 367.97 138.02 365.76Q137.68 363.56 136.80 362.24Q135.91 360.91 135.03 360.13L133.56 358.37Q132.68 357.39 132.68 356.01Q132.68 353.96 134.10 353.07Q135.52 352.19 136.99 352.19Q139.15 352.19 140.23 354Q141.30 355.82 141.55 359Q141.79 362.19 141.30 366.21Q140.62 371.99 138.46 376.74Q136.31 381.49 133.22 384.97Q130.13 388.45 126.75 390.36Q123.37 392.27 120.23 392.27M160.22 392.18Q154.83 392.18 151.79 389.43Q148.75 386.69 147.82 382.28Q146.89 377.87 147.77 372.87Q148.46 369.15 150.52 365.42Q152.57 361.70 155.61 358.66Q158.65 355.62 162.47 353.76Q166.29 351.90 170.61 351.90Q174.33 351.90 176.14 353.32Q177.96 354.74 177.66 357.19Q177.27 359.54 174.97 361.80Q172.66 364.05 169.04 365.81Q165.41 367.58 160.90 368.85Q157.87 369.73 154.83 370.22Q153.95 375.12 154.73 379.14Q155.51 383.45 157.96 386Q160.41 388.55 164.53 388.55Q166.78 388.55 169.28 387.86Q171.78 387.18 174.13 385.32Q174.13 385.32 174.23 385.22Q174.43 385.22 174.72 385.51Q175.02 385.90 174.82 386.20Q171.10 389.43 167.42 390.80Q163.75 392.18 160.22 392.18M155.12 368.75Q160.32 367.68 164.24 365.81Q169.23 363.46 170.02 359.25Q170.61 356.80 169.28 355.67Q167.96 354.54 166 354.54Q163.06 354.54 160.81 356.60Q158.55 358.66 157.08 362.09Q155.81 365.13 155.12 368.75M190.50 389.73L190.40 390.12Q190.11 391.78 186.58 391.78Q185.01 391.78 184.52 391.59Q184.03 391.39 184.03 391.10Q184.03 390.80 184.57 388.45Q185.11 386.10 185.50 383.75L189.03 364.44Q189.62 361.21 189.47 359.54Q189.32 357.88 188.74 357.14Q188.15 356.41 187.27 356.41Q186.09 356.41 184.57 357.53Q183.05 358.66 181.48 360.13Q181.19 360.42 180.80 360.03Q180.41 359.64 180.70 359.35Q183.84 355.72 186.48 354Q189.13 352.29 191.68 352.29Q193.54 352.29 194.57 353.37Q195.60 354.45 195.74 356.99Q195.89 359.54 195.11 363.95L193.05 375.42Q193.83 372.67 194.81 370.03Q196.58 365.13 198.63 361.11Q200.69 357.09 202.90 354.69Q205.10 352.29 207.45 352.29Q208.83 352.29 210.25 353.02Q211.67 353.76 212.55 355.03Q213.43 356.31 213.14 357.88Q212.94 359.15 212.01 360.03Q211.08 360.91 209.61 360.91Q208.14 360.91 207.31 360.13Q206.47 359.35 205.84 358.56Q205.20 357.78 204.12 357.78Q202.85 357.78 201.28 360.03Q199.71 362.29 198.05 365.91Q196.38 369.54 194.86 373.90Q193.34 378.26 192.17 382.47Q191.09 386.59 190.50 389.73M210.98 418.54Q208.92 418.54 207.55 417.51Q206.18 416.48 206.47 413.93Q207.16 410.70 210.98 410.70Q213.04 410.70 214.95 410.94Q216.86 411.19 218.72 410.89Q220.59 410.60 222.45 409.33Q224.60 407.86 227.54 404.23Q228.72 402.76 229.99 401Q230.39 380.32 227.54 368.85Q224.60 356.99 219.21 356.99Q217.94 356.99 216.67 357.83Q215.39 358.66 214.51 360.42Q214.31 360.82 213.78 360.67Q213.24 360.52 213.33 360.13Q215.10 356.41 217.74 354.35Q220.39 352.29 223.13 352.29Q226.47 352.29 229.06 355.57Q231.66 358.86 233.33 364.59Q234.99 370.32 235.68 377.77Q236.27 384.73 235.87 392.57Q237.74 389.63 239.50 386.59Q242.34 381.79 244.35 377.62Q246.36 373.46 246.95 370.91Q247.63 367.87 247.39 365.62Q247.14 363.36 246.46 361.65Q245.77 359.93 245.13 358.61Q244.50 357.29 244.50 355.92Q244.50 354.25 245.67 353.22Q246.85 352.19 248.71 352.19Q250.87 352.19 251.90 353.76Q252.93 355.33 252.93 358.07Q252.93 361.40 251.36 366.30Q249.79 371.20 247.05 376.94Q244.30 382.67 240.77 388.50Q237.25 394.33 233.33 399.72Q229.41 405.11 225.34 409.33Q221.27 413.54 217.60 416.04Q213.92 418.54 210.98 418.54M290.95 389.73L290.85 390.12Q290.56 391.78 287.03 391.78Q285.46 391.78 284.97 391.59Q284.48 391.39 284.48 391.10Q284.48 390.80 285.02 388.45Q285.56 386.10 285.95 383.75L289.48 364.44Q290.07 361.21 289.92 359.54Q289.77 357.88 289.19 357.14Q288.60 356.41 287.72 356.41Q286.54 356.41 285.02 357.53Q283.50 358.66 281.93 360.13Q281.64 360.42 281.25 360.03Q280.86 359.64 281.15 359.35Q284.29 355.72 286.93 354Q289.58 352.29 292.13 352.29Q293.99 352.29 295.02 353.37Q296.05 354.45 296.19 356.99Q296.34 359.54 295.56 363.95L293.50 375.42Q294.28 372.67 295.26 370.03Q297.03 365.13 299.08 361.11Q301.14 357.09 303.35 354.69Q305.55 352.29 307.90 352.29Q309.28 352.29 310.70 353.02Q312.12 353.76 313 355.03Q313.88 356.31 313.59 357.88Q313.39 359.15 312.46 360.03Q311.53 360.91 310.06 360.91Q308.59 360.91 307.76 360.13Q306.92 359.35 306.29 358.56Q305.65 357.78 304.57 357.78Q303.30 357.78 301.73 360.03Q300.16 362.29 298.50 365.91Q296.83 369.54 295.31 373.90Q293.79 378.26 292.62 382.47Q291.54 386.59 290.95 389.73M326.72 392.18Q321.33 392.18 318.29 389.43Q315.25 386.69 314.32 382.28Q313.39 377.87 314.27 372.87Q314.96 369.15 317.02 365.42Q319.08 361.70 322.11 358.66Q325.15 355.62 328.97 353.76Q332.80 351.90 337.11 351.90Q340.83 351.90 342.64 353.32Q344.46 354.74 344.16 357.19Q343.77 359.54 341.47 361.80Q339.17 364.05 335.54 365.81Q331.91 367.58 327.41 368.85Q324.37 369.73 321.33 370.22Q320.45 375.12 321.23 379.14Q322.02 383.45 324.47 386Q326.92 388.55 331.03 388.55Q333.29 388.55 335.79 387.86Q338.28 387.18 340.64 385.32Q340.64 385.32 340.73 385.22Q340.93 385.22 341.22 385.51Q341.52 385.90 341.32 386.20Q337.60 389.43 333.92 390.80Q330.25 392.18 326.72 392.18M321.62 368.75Q326.82 367.68 330.74 365.81Q335.74 363.46 336.52 359.25Q337.11 356.80 335.79 355.67Q334.46 354.54 332.50 354.54Q329.56 354.54 327.31 356.60Q325.05 358.66 323.58 362.09Q322.31 365.13 321.62 368.75M363.57 392.27Q360.43 392.27 358.23 390.41Q356.02 388.55 355.04 385.56Q354.06 382.57 354.36 379.34Q354.94 375.03 357.25 370.47Q359.55 365.91 361.61 361.50Q362.20 360.13 362.05 359.49Q361.90 358.86 360.82 358.86L355.92 358.86Q353.47 358.86 352.15 359.25Q350.83 359.64 350.04 360.72Q349.26 361.80 348.57 363.76Q348.38 364.15 347.89 363.95Q347.59 363.95 347.50 363.76Q347.40 363.56 347.50 363.36Q348.97 359.15 350.09 356.94Q351.22 354.74 352.89 353.91Q354.55 353.07 357.39 353.07L366.21 353.07Q367.10 353.07 367.24 353.27Q367.39 353.47 367 354.25Q364.84 359.15 362.83 364.79Q360.82 370.42 360.33 374.63Q359.55 380.22 361.51 383.40Q363.47 386.59 367 386.59Q369.94 386.59 372.68 384.78Q375.43 382.96 377.63 379.63Q379.84 376.30 380.82 371.79Q381.70 367.97 381.36 365.76Q381.01 363.56 380.13 362.24Q379.25 360.91 378.37 360.13L376.90 358.37Q376.01 357.39 376.01 356.01Q376.01 353.96 377.44 353.07Q378.86 352.19 380.33 352.19Q382.48 352.19 383.56 354Q384.64 355.82 384.88 359Q385.13 362.19 384.64 366.21Q383.95 371.99 381.80 376.74Q379.64 381.49 376.55 384.97Q373.47 388.45 370.09 390.36Q366.70 392.27 363.57 392.27M398.75 391.88Q396.10 391.88 395.27 389.68Q394.44 387.47 395.52 382.28L399.53 361.89Q400.32 357.68 398.95 356.70Q398.55 356.41 397.87 356.41Q396.79 356.41 395.12 357.53Q393.46 358.66 391.50 360.72Q391.40 360.91 391.20 360.91Q391.01 360.91 390.76 360.67Q390.52 360.42 390.52 360.23Q390.52 360.03 390.71 359.93Q394.14 356.01 396.89 354.15Q399.63 352.29 402.18 352.29Q404.92 352.29 405.71 354.45Q406.49 356.60 405.51 361.40L401.49 382.28Q400.91 385.22 401.40 386.44Q401.89 387.67 402.96 387.67Q404.04 387.67 405.66 386.54Q407.28 385.41 409.14 383.55Q409.33 383.36 409.53 383.36Q409.73 383.36 409.92 383.55Q410.12 383.85 410.12 384.04Q410.12 384.24 409.92 384.34Q406.79 388.06 404.09 389.97Q401.40 391.88 398.75 391.88M405.02 341.12Q402.87 341.12 401.64 339.94Q400.42 338.77 400.42 336.51Q400.42 334.45 401.64 333.28Q402.87 332.10 405.02 332.10Q407.28 332.10 408.45 333.28Q409.63 334.45 409.63 336.51Q409.63 341.12 405.02 341.12M427.76 392.18Q422.37 392.18 419.33 389.43Q416.29 386.69 415.36 382.28Q414.43 377.87 415.31 372.87Q416 369.15 418.06 365.42Q420.11 361.70 423.15 358.66Q426.19 355.62 430.01 353.76Q433.83 351.90 438.15 351.90Q441.87 351.90 443.68 353.32Q445.50 354.74 445.20 357.19Q444.81 359.54 442.51 361.80Q440.20 364.05 436.58 365.81Q432.95 367.58 428.44 368.85Q425.41 369.73 422.37 370.22Q421.49 375.12 422.27 379.14Q423.05 383.45 425.50 386Q427.95 388.55 432.07 388.55Q434.32 388.55 436.82 387.86Q439.32 387.18 441.67 385.32Q441.67 385.32 441.77 385.22Q441.97 385.22 442.26 385.51Q442.56 385.90 442.36 386.20Q438.64 389.43 434.96 390.80Q431.29 392.18 427.76 392.18M422.66 368.75Q427.86 367.68 431.78 365.81Q436.77 363.46 437.56 359.25Q438.15 356.80 436.82 355.67Q435.50 354.54 433.54 354.54Q430.60 354.54 428.35 356.60Q426.09 358.66 424.62 362.09Q423.35 365.13 422.66 368.75M464.61 392.27Q461.27 392.27 459.12 390.36Q456.96 388.45 456.18 385.27Q455.39 382.08 455.98 378.26Q456.67 374.14 458.68 369.73Q460.69 365.32 462.65 361.50Q463.33 360.03 463.14 359.44Q462.94 358.86 461.86 358.86L456.96 358.86Q454.51 358.86 453.19 359.25Q451.87 359.64 451.08 360.72Q450.30 361.80 449.61 363.76Q449.42 364.15 448.93 363.95Q448.63 363.95 448.53 363.76Q448.44 363.56 448.53 363.36Q450 359.15 451.13 356.94Q452.26 354.74 453.92 353.91Q455.59 353.07 458.43 353.07L467.25 353.07Q468.13 353.07 468.28 353.27Q468.43 353.47 468.04 354.25Q465.88 359.15 464.02 364.79Q462.16 370.42 461.57 374.63Q460.78 380.22 462.65 383.50Q464.51 386.79 468.04 386.79Q470.58 386.79 473.03 385.12Q474.31 384.24 475.58 382.87Q474.80 380.12 474.70 376.69Q474.41 372.18 475.29 367.28Q476.07 362.78 477.25 359.49Q478.42 356.21 479.99 354.40Q481.56 352.58 483.23 352.58Q485.68 352.58 486.51 355.43Q487.34 358.27 486.56 362.87Q485.48 369.44 483.13 374.83Q481.56 378.46 479.60 381.40Q480.78 383.55 482.54 384.92Q484.79 386.79 487.93 386.79Q490.28 386.79 492.83 384.92Q495.38 383.06 497.34 379.68Q499.30 376.30 499.98 371.79Q500.47 368.17 500.13 365.96Q499.79 363.76 498.96 362.33Q498.12 360.91 497.14 359.74Q496.36 358.95 495.77 358.07Q495.18 357.19 495.18 356.01Q495.18 353.96 496.55 353.07Q497.93 352.19 499.49 352.19Q501.65 352.19 502.68 354Q503.71 355.82 503.95 359Q504.20 362.19 503.71 366.21Q503.02 371.99 501.01 376.74Q499 381.49 496.26 384.97Q493.52 388.45 490.43 390.36Q487.34 392.27 484.50 392.27Q481.56 392.27 479.50 390.22Q477.64 388.55 476.46 385.61Q473.92 388.45 471.27 390.12Q467.84 392.27 464.61 392.27M478.52 379.14Q480.19 376.79 481.36 373.85Q482.93 370.22 483.42 366.21Q483.91 362.87 483.23 361.16Q482.54 359.44 480.97 359.44Q479.60 359.44 478.72 361.21Q477.84 362.97 477.44 365.42Q476.76 369.24 477.15 373.07Q477.44 376.40 478.52 379.14M511.94 391.98Q509.78 391.98 508.56 390.75Q507.33 389.53 507.33 387.37Q507.33 385.32 508.56 384.14Q509.78 382.96 511.94 382.96Q514.10 382.96 515.27 384.14Q516.45 385.32 516.45 387.37Q516.45 391.98 511.94 391.98" fill="#C9356E"/>
<text x="74" y="452" font-family="Arial, sans-serif" font-size="20" fill="#62616C">Discover the sources. Examine the evidence.</text>
<circle cx="987" cy="290" r="128" fill="none" stroke="#EFD2DD" stroke-width="1"/>
<circle cx="987" cy="290" r="100" fill="none" stroke="#EFD2DD" stroke-width="1"/>
<g transform="translate(919 222) scale(2.125)"><rect width="64" height="64" rx="18" fill="#C9356E"/><path d="M29 22a12 12 0 1 0 0 20V32h-8M37 44V20h5c12 0 12 14 0 14h-5m7 0 9 10" fill="none" stroke="white" stroke-width="3" stroke-linecap="round" stroke-linejoin="round"/></g>
<path d="M74 501H1126" stroke="#E8CBD6"/>
<path d="M76.86 543L75.19 543L75.19 530.76L76.80 530.76L81.23 539.97L85.64 530.76L87.27 530.76L87.27 542.99L85.59 542.99L85.59 534.62L81.63 543L80.83 543L76.86 534.62L76.86 543M91.59 532.32L89.82 532.32L89.82 530.59L91.59 530.59L91.59 532.32M91.59 543L89.82 543L89.82 533.82L91.59 533.82L91.59 543M97.66 543.25Q95.98 543.25 94.93 542.51Q93.87 541.77 93.64 540.42L95.45 540.14Q95.62 540.86 96.24 541.27Q96.86 541.68 97.77 541.68Q98.61 541.68 99.08 541.34Q99.55 541 99.55 540.41Q99.55 540.06 99.39 539.84Q99.22 539.63 98.69 539.43Q98.17 539.23 97.09 538.95Q95.90 538.64 95.21 538.29Q94.52 537.93 94.23 537.46Q93.93 536.99 93.93 536.32Q93.93 535.49 94.37 534.87Q94.82 534.25 95.62 533.90Q96.42 533.57 97.50 533.57Q98.56 533.57 99.38 533.90Q100.21 534.23 100.72 534.84Q101.23 535.44 101.33 536.26L99.51 536.59Q99.41 535.93 98.89 535.55Q98.36 535.16 97.52 535.13Q96.71 535.10 96.21 535.40Q95.71 535.70 95.71 536.23Q95.71 536.53 95.90 536.74Q96.09 536.96 96.64 537.15Q97.20 537.35 98.28 537.62Q99.43 537.92 100.11 538.28Q100.79 538.64 101.09 539.14Q101.38 539.63 101.38 540.34Q101.38 541.70 100.39 542.47Q99.40 543.25 97.66 543.25M106.77 543.25Q105.09 543.25 104.04 542.51Q102.98 541.77 102.75 540.42L104.57 540.14Q104.74 540.86 105.35 541.27Q105.97 541.68 106.89 541.68Q107.72 541.68 108.19 541.34Q108.66 541 108.66 540.41Q108.66 540.06 108.50 539.84Q108.33 539.63 107.80 539.43Q107.28 539.23 106.20 538.95Q105.02 538.64 104.32 538.29Q103.63 537.93 103.34 537.46Q103.04 536.99 103.04 536.32Q103.04 535.49 103.49 534.87Q103.93 534.25 104.73 533.90Q105.53 533.57 106.61 533.57Q107.67 533.57 108.49 533.90Q109.32 534.23 109.83 534.84Q110.34 535.44 110.44 536.26L108.62 536.59Q108.53 535.93 108 535.55Q107.47 535.16 106.63 535.13Q105.82 535.10 105.32 535.40Q104.82 535.70 104.82 536.23Q104.82 536.53 105.01 536.74Q105.20 536.96 105.76 537.15Q106.31 537.35 107.39 537.62Q108.54 537.92 109.22 538.28Q109.90 538.64 110.20 539.14Q110.49 539.63 110.49 540.34Q110.49 541.70 109.50 542.47Q108.51 543.25 106.77 543.25M114.32 532.32L112.54 532.32L112.54 530.59L114.32 530.59L114.32 532.32M114.32 543L112.54 543L112.54 533.82L114.32 533.82L114.32 543M125.11 543L123.31 543L123.31 538.49Q123.31 537.95 123.22 537.39Q123.13 536.82 122.88 536.34Q122.63 535.85 122.17 535.55Q121.72 535.26 120.99 535.26Q120.51 535.26 120.09 535.41Q119.66 535.57 119.34 535.92Q119.02 536.27 118.84 536.84Q118.66 537.41 118.66 538.22L118.66 543L116.86 543L116.86 533.82L118.45 533.82L118.45 534.92Q118.83 534.44 119.36 534.11Q120.24 533.57 121.48 533.57Q122.43 533.57 123.08 533.88Q123.72 534.19 124.13 534.68Q124.53 535.18 124.74 535.77Q124.96 536.35 125.03 536.91Q125.11 537.48 125.11 537.90L125.11 543M131.10 547.34Q130.36 547.34 129.67 547.11Q128.98 546.88 128.41 546.43Q127.84 545.98 127.46 545.33L129.11 544.50Q129.40 545.08 129.96 545.35Q130.51 545.63 131.12 545.63Q131.88 545.63 132.41 545.36Q132.95 545.09 133.22 544.56Q133.50 544.02 133.49 543.23L133.49 542.36Q133.34 542.50 133.18 542.61Q132.28 543.25 130.97 543.25Q129.68 543.25 128.75 542.62Q127.82 541.98 127.32 540.88Q126.81 539.78 126.81 538.40Q126.81 537.02 127.32 535.92Q127.83 534.83 128.77 534.20Q129.71 533.57 131 533.57Q132.30 533.57 133.19 534.19Q133.47 534.40 133.70 534.64L133.70 533.82L135.28 533.82L135.28 543.25Q135.28 543.61 135.25 543.94Q135.23 544.27 135.16 544.61Q134.96 545.53 134.41 546.14Q133.87 546.74 133.02 547.04Q132.17 547.34 131.10 547.34M131.21 541.65Q132.09 541.65 132.64 541.23Q133.19 540.82 133.45 540.08Q133.70 539.35 133.70 538.40Q133.70 537.45 133.44 536.72Q133.19 535.99 132.65 535.58Q132.11 535.17 131.27 535.17Q130.39 535.17 129.82 535.61Q129.25 536.04 128.97 536.77Q128.70 537.50 128.70 538.40Q128.70 539.31 128.97 540.05Q129.25 540.78 129.81 541.22Q130.36 541.65 131.21 541.65M143 532.32L141.23 532.32L141.23 530.59L143 530.59L143 532.32M143 543L141.23 543L141.23 533.82L143 533.82L143 543M153.80 543L152 543L152 538.49Q152 537.95 151.91 537.39Q151.82 536.82 151.57 536.34Q151.32 535.85 150.86 535.55Q150.41 535.26 149.68 535.26Q149.20 535.26 148.77 535.41Q148.35 535.57 148.03 535.92Q147.71 536.27 147.53 536.84Q147.35 537.41 147.35 538.22L147.35 543L145.54 543L145.54 533.82L147.13 533.82L147.13 534.92Q147.52 534.44 148.05 534.11Q148.93 533.57 150.17 533.57Q151.12 533.57 151.77 533.88Q152.41 534.19 152.82 534.68Q153.22 535.18 153.43 535.77Q153.65 536.35 153.72 536.91Q153.80 537.48 153.80 537.90L153.80 543M158.63 543L156.85 543L156.85 535.25L155.33 535.25L155.33 533.82L156.85 533.82L156.85 533.50Q156.85 533.15 156.88 532.75Q156.90 532.36 157.02 531.97Q157.15 531.58 157.44 531.26Q157.78 530.88 158.20 530.72Q158.62 530.56 159.03 530.53Q159.44 530.50 159.79 530.50L160.95 530.50L160.95 531.97L159.88 531.97Q159.25 531.97 158.94 532.28Q158.63 532.59 158.63 533.16L158.63 533.82L160.95 533.82L160.95 535.25L158.63 535.25L158.63 543M165.95 543.25Q164.58 543.25 163.56 542.63Q162.55 542.01 162 540.92Q161.46 539.83 161.46 538.40Q161.46 536.97 162.02 535.87Q162.58 534.78 163.59 534.17Q164.60 533.57 165.95 533.57Q167.33 533.57 168.34 534.19Q169.35 534.81 169.91 535.89Q170.46 536.98 170.46 538.40Q170.46 539.84 169.90 540.93Q169.34 542.02 168.33 542.64Q167.32 543.25 165.95 543.25M165.95 541.58Q167.27 541.58 167.92 540.69Q168.57 539.80 168.57 538.40Q168.57 536.97 167.91 536.10Q167.25 535.24 165.95 535.24Q165.06 535.24 164.48 535.64Q163.90 536.05 163.62 536.76Q163.34 537.47 163.34 538.40Q163.34 539.85 164.01 540.71Q164.67 541.58 165.95 541.58M174.12 543L172.33 543L172.33 533.82L173.91 533.82L173.91 535.29Q174.01 535.11 174.13 534.94Q174.40 534.58 174.76 534.34Q175.11 534.08 175.54 533.94Q175.97 533.80 176.42 533.77Q176.87 533.74 177.28 533.82L177.28 535.49Q176.83 535.37 176.28 535.42Q175.74 535.47 175.28 535.77Q174.84 536.05 174.59 536.45Q174.34 536.85 174.23 537.33Q174.12 537.82 174.12 538.37L174.12 543M191.67 543L189.90 543L189.91 537.28Q189.91 536.28 189.40 535.73Q188.89 535.17 188.05 535.17Q187.54 535.17 187.12 535.41Q186.70 535.64 186.44 536.10Q186.18 536.57 186.18 537.26L186.17 543L184.40 543L184.41 537.31Q184.41 536.31 183.90 535.74Q183.40 535.17 182.55 535.17Q181.70 535.17 181.19 535.75Q180.68 536.33 180.68 537.26L180.68 543L178.89 543L178.89 533.82L180.47 533.82L180.47 534.81Q180.86 534.31 181.43 534Q182.17 533.59 183.11 533.59Q184.08 533.59 184.77 534Q185.42 534.39 185.78 535.06Q186.20 534.38 186.91 533.99Q187.65 533.59 188.56 533.59Q190.05 533.59 190.87 534.48Q191.68 535.38 191.68 536.85L191.67 543M196.49 543.25Q195.47 543.25 194.78 542.88Q194.09 542.50 193.74 541.87Q193.38 541.25 193.38 540.50Q193.38 539.80 193.63 539.28Q193.88 538.75 194.36 538.38Q194.84 538.01 195.55 537.78Q196.16 537.60 196.94 537.47Q197.71 537.33 198.57 537.21Q199.09 537.13 199.61 537.07Q199.57 536.18 199.16 535.72Q198.69 535.21 197.54 535.21Q196.82 535.21 196.21 535.54Q195.61 535.88 195.37 536.65L193.71 536.14Q194.05 534.96 195.01 534.26Q195.97 533.57 197.56 533.57Q198.79 533.57 199.70 533.99Q200.62 534.41 201.04 535.32Q201.26 535.77 201.31 536.27Q201.36 536.77 201.36 537.35L201.36 543L199.79 543L199.79 541.67Q199.31 542.35 198.65 542.74Q197.77 543.25 196.49 543.25M196.80 541.80Q197.56 541.80 198.10 541.53Q198.64 541.27 198.98 540.85Q199.31 540.43 199.41 539.98Q199.55 539.57 199.58 539.06Q199.59 538.78 199.60 538.55Q199.09 538.62 198.64 538.69Q197.96 538.79 197.40 538.89Q196.84 538.99 196.41 539.12Q196.04 539.25 195.76 539.43Q195.47 539.61 195.31 539.86Q195.14 540.12 195.14 540.48Q195.14 540.84 195.32 541.14Q195.50 541.44 195.86 541.62Q196.23 541.80 196.80 541.80M208.83 541.50L208.83 543Q207.96 543.17 207.13 543.14Q206.29 543.12 205.64 542.82Q204.99 542.52 204.65 541.89Q204.36 541.32 204.33 540.73Q204.31 540.14 204.31 539.39L204.31 535.25L202.55 535.25L202.55 533.82L204.31 533.82L204.31 531.27L206.10 531.27L206.10 533.82L208.83 533.82L208.83 535.25L206.10 535.25L206.10 539.30Q206.10 539.86 206.11 540.26Q206.12 540.67 206.29 540.95Q206.59 541.48 207.26 541.55Q207.93 541.62 208.83 541.50M212.70 532.32L210.93 532.32L210.93 530.59L212.70 530.59L212.70 532.32M212.70 543L210.93 543L210.93 533.82L212.70 533.82L212.70 543M219.24 543.25Q217.86 543.25 216.85 542.63Q215.84 542.01 215.29 540.92Q214.74 539.83 214.74 538.40Q214.74 536.97 215.30 535.87Q215.87 534.78 216.88 534.17Q217.89 533.57 219.24 533.57Q220.62 533.57 221.63 534.19Q222.64 534.81 223.19 535.89Q223.74 536.98 223.74 538.40Q223.74 539.84 223.19 540.93Q222.63 542.02 221.62 542.64Q220.61 543.25 219.24 543.25M219.24 541.58Q220.56 541.58 221.21 540.69Q221.86 539.80 221.86 538.40Q221.86 536.97 221.20 536.10Q220.54 535.24 219.24 535.24Q218.35 535.24 217.77 535.64Q217.19 536.05 216.91 536.76Q216.63 537.47 216.63 538.40Q216.63 539.85 217.29 540.71Q217.96 541.58 219.24 541.58M233.86 543L232.06 543L232.06 538.49Q232.06 537.95 231.97 537.39Q231.88 536.82 231.63 536.34Q231.38 535.85 230.92 535.55Q230.47 535.26 229.74 535.26Q229.26 535.26 228.84 535.41Q228.41 535.57 228.09 535.92Q227.77 536.27 227.59 536.84Q227.41 537.41 227.41 538.22L227.41 543L225.61 543L225.61 533.82L227.20 533.82L227.20 534.92Q227.58 534.44 228.11 534.11Q228.99 533.57 230.23 533.57Q231.18 533.57 231.83 533.88Q232.47 534.19 232.88 534.68Q233.28 535.18 233.49 535.77Q233.71 536.35 233.78 536.91Q233.86 537.48 233.86 537.90" fill="#1A1A2E"/>
<circle cx="300" cy="537" r="3" fill="#C9356E"/>
<path d="M334.30 543.25Q332.46 543.25 331.17 542.45Q329.88 541.65 329.19 540.21Q328.51 538.78 328.51 536.88Q328.51 534.98 329.19 533.55Q329.88 532.11 331.17 531.31Q332.46 530.50 334.30 530.50Q336.42 530.50 337.80 531.58Q339.19 532.65 339.74 534.46L337.94 534.94Q337.58 533.66 336.67 532.93Q335.75 532.20 334.30 532.20Q333 532.20 332.13 532.78Q331.26 533.37 330.83 534.42Q330.39 535.48 330.39 536.88Q330.38 538.28 330.82 539.34Q331.26 540.39 332.13 540.98Q333 541.56 334.30 541.56Q335.75 541.56 336.67 540.83Q337.58 540.09 337.94 538.82L339.74 539.30Q339.19 541.11 337.80 542.18Q336.42 543.25 334.30 543.25M343.56 543L341.78 543L341.78 530.50L343.56 530.50L343.56 543M348.05 532.32L346.28 532.32L346.28 530.59L348.05 530.59L348.05 532.32M348.05 543L346.28 543L346.28 533.82L348.05 533.82L348.05 543M358.85 543L357.04 543L357.04 538.49Q357.04 537.95 356.96 537.39Q356.87 536.82 356.62 536.34Q356.36 535.85 355.91 535.55Q355.46 535.26 354.72 535.26Q354.25 535.26 353.82 535.41Q353.40 535.57 353.08 535.92Q352.76 536.27 352.58 536.84Q352.40 537.41 352.40 538.22L352.40 543L350.59 543L350.59 533.82L352.18 533.82L352.18 534.92Q352.57 534.44 353.10 534.11Q353.98 533.57 355.22 533.57Q356.17 533.57 356.82 533.88Q357.46 534.19 357.86 534.68Q358.27 535.18 358.48 535.77Q358.69 536.35 358.77 536.91Q358.85 537.48 358.85 537.90L358.85 543M363 532.32L361.23 532.32L361.23 530.59L363 530.59L363 532.32M363 543L361.23 543L361.23 533.82L363 533.82L363 543M369.48 543.25Q368.07 543.25 367.08 542.63Q366.10 542 365.57 540.90Q365.05 539.80 365.04 538.41Q365.05 536.99 365.59 535.90Q366.12 534.81 367.12 534.19Q368.11 533.57 369.51 533.57Q371.01 533.57 372.08 534.31Q373.14 535.06 373.48 536.36L371.72 536.87Q371.45 536.10 370.85 535.67Q370.25 535.24 369.48 535.24Q368.60 535.24 368.04 535.65Q367.48 536.06 367.21 536.78Q366.94 537.49 366.93 538.41Q366.94 539.83 367.58 540.71Q368.22 541.58 369.48 541.58Q370.34 541.58 370.87 541.19Q371.40 540.79 371.68 540.05L373.48 540.48Q373.03 541.82 372 542.54Q370.96 543.25 369.48 543.25M380.56 532.32L378.79 532.32L378.79 530.59L380.56 530.59L380.56 532.32M380.56 543L378.79 543L378.79 533.82L380.56 533.82L380.56 543M386.76 543.25Q385.48 543.25 384.55 542.62Q383.62 541.98 383.11 540.88Q382.60 539.78 382.60 538.40Q382.60 537.02 383.11 535.92Q383.62 534.83 384.56 534.20Q385.50 533.57 386.79 533.57Q388.10 533.57 388.99 534.19Q389.15 534.31 389.29 534.45L389.29 530.76L391.08 530.76L391.08 543L389.50 543L389.50 542.16Q389.26 542.40 388.97 542.61Q388.08 543.25 386.76 543.25M387.01 541.65Q387.88 541.65 388.44 541.23Q388.99 540.82 389.24 540.08Q389.50 539.35 389.50 538.40Q389.50 537.45 389.24 536.72Q388.98 535.99 388.44 535.58Q387.90 535.17 387.07 535.17Q386.18 535.17 385.61 535.61Q385.04 536.04 384.77 536.77Q384.49 537.50 384.49 538.40Q384.49 539.31 384.77 540.05Q385.04 540.78 385.60 541.22Q386.16 541.65 387.01 541.65M397.53 543.25Q396.16 543.25 395.13 542.66Q394.10 542.06 393.52 540.98Q392.95 539.91 392.95 538.49Q392.95 536.98 393.51 535.88Q394.08 534.77 395.09 534.17Q396.10 533.57 397.44 533.57Q398.85 533.57 399.83 534.22Q400.82 534.87 401.31 536.06Q401.80 537.26 401.69 538.91L394.85 538.91Q394.95 540.07 395.51 540.75Q396.18 541.58 397.44 541.58Q398.28 541.58 398.89 541.20Q399.49 540.82 399.83 540.12L401.58 540.67Q401.04 541.90 399.95 542.58Q398.86 543.25 397.53 543.25M394.90 537.53L399.88 537.53Q399.76 536.48 399.31 535.90Q398.72 535.14 397.51 535.14Q396.18 535.14 395.51 535.98Q395.04 536.57 394.90 537.53M411.59 543L409.79 543L409.79 538.49Q409.79 537.95 409.70 537.39Q409.61 536.82 409.36 536.34Q409.11 535.85 408.65 535.55Q408.20 535.26 407.47 535.26Q406.99 535.26 406.57 535.41Q406.14 535.57 405.82 535.92Q405.50 536.27 405.32 536.84Q405.14 537.41 405.14 538.22L405.14 543L403.34 543L403.34 533.82L404.93 533.82L404.93 534.92Q405.31 534.44 405.84 534.11Q406.72 533.57 407.96 533.57Q408.91 533.57 409.56 533.88Q410.20 534.19 410.61 534.68Q411.01 535.18 411.22 535.77Q411.44 536.35 411.51 536.91Q411.59 537.48 411.59 537.90L411.59 543M419.05 541.50L419.05 543Q418.19 543.17 417.35 543.14Q416.52 543.12 415.86 542.82Q415.21 542.52 414.88 541.89Q414.58 541.32 414.56 540.73Q414.54 540.14 414.54 539.39L414.54 535.25L412.78 535.25L412.78 533.82L414.54 533.82L414.54 531.27L416.32 531.27L416.32 533.82L419.05 533.82L419.05 535.25L416.32 535.25L416.32 539.30Q416.32 539.86 416.34 540.26Q416.35 540.67 416.51 540.95Q416.82 541.48 417.48 541.55Q418.15 541.62 419.05 541.50M422.93 532.32L421.15 532.32L421.15 530.59L422.93 530.59L422.93 532.32M422.93 543L421.15 543L421.15 533.82L422.93 533.82L422.93 543M430.73 541.50L430.73 543Q429.86 543.17 429.03 543.14Q428.20 543.12 427.54 542.82Q426.89 542.52 426.56 541.89Q426.26 541.32 426.24 540.73Q426.22 540.14 426.22 539.39L426.22 535.25L424.46 535.25L424.46 533.82L426.22 533.82L426.22 531.27L428 531.27L428 533.82L430.73 533.82L430.73 535.25L428 535.25L428 539.30Q428 539.86 428.02 540.26Q428.03 540.67 428.19 540.95Q428.50 541.48 429.16 541.55Q429.83 541.62 430.73 541.50M435.34 547.08L433.65 547.08L435.16 542.96L431.44 533.82L433.30 533.82L436.01 540.72L438.60 533.82L440.40 533.82" fill="#1A1A2E"/>
<circle cx="492" cy="537" r="3" fill="#C9356E"/>
<path d="M522.97 543L521.19 543L521.19 530.76L526.14 530.76Q526.32 530.76 526.58 530.77Q526.84 530.79 527.08 530.83Q528.10 530.99 528.78 531.52Q529.47 532.06 529.81 532.88Q530.15 533.69 530.15 534.68Q530.15 536.14 529.40 537.19Q528.90 537.91 528.07 538.26L530.38 543L528.35 543L526.21 538.61L522.97 538.61L522.97 543M522.97 532.43L522.97 536.92L526.07 536.92Q526.24 536.92 526.45 536.91Q526.66 536.89 526.84 536.85Q527.39 536.72 527.72 536.37Q528.05 536.03 528.19 535.58Q528.34 535.13 528.34 534.68Q528.34 534.23 528.19 533.78Q528.05 533.34 527.72 532.99Q527.39 532.65 526.84 532.52Q526.66 532.47 526.45 532.45Q526.24 532.43 526.07 532.43L522.97 532.43M536.32 543.25Q534.95 543.25 533.92 542.66Q532.89 542.06 532.31 540.98Q531.74 539.91 531.74 538.49Q531.74 536.98 532.30 535.88Q532.87 534.77 533.88 534.17Q534.89 533.57 536.24 533.57Q537.64 533.57 538.62 534.22Q539.61 534.87 540.10 536.06Q540.59 537.26 540.49 538.91L533.64 538.91Q533.74 540.07 534.30 540.75Q534.97 541.58 536.24 541.58Q537.07 541.58 537.68 541.20Q538.28 540.82 538.62 540.12L540.37 540.67Q539.83 541.90 538.74 542.58Q537.65 543.25 536.32 543.25M533.68 537.53L538.67 537.53Q538.55 536.48 538.11 535.90Q537.51 535.14 536.30 535.14Q534.97 535.14 534.30 535.98Q533.83 536.57 533.68 537.53M546.33 543L544.53 543L541.20 533.82L542.99 533.82L545.43 540.77L547.87 533.82L549.66 533.82L546.33 543M553.14 532.32L551.36 532.32L551.36 530.59L553.14 530.59L553.14 532.32M553.14 543L551.36 543L551.36 533.82L553.14 533.82L553.14 543M559.76 543.25Q558.39 543.25 557.36 542.66Q556.33 542.06 555.76 540.98Q555.18 539.91 555.18 538.49Q555.18 536.98 555.75 535.88Q556.31 534.77 557.32 534.17Q558.33 533.57 559.68 533.57Q561.08 533.57 562.07 534.22Q563.05 534.87 563.54 536.06Q564.03 537.26 563.93 538.91L557.09 538.91Q557.19 540.07 557.74 540.75Q558.41 541.58 559.68 541.58Q560.51 541.58 561.12 541.20Q561.73 540.82 562.07 540.12L563.81 540.67Q563.27 541.90 562.19 542.58Q561.10 543.25 559.76 543.25M557.13 537.53L562.11 537.53Q561.99 536.48 561.55 535.90Q560.95 535.14 559.75 535.14Q558.41 535.14 557.74 535.98Q557.27 536.57 557.13 537.53M568.87 543L567.45 543L564.64 533.81L566.40 533.82L568.32 540.12L570.26 533.82L571.79 533.82L573.73 540.12L575.65 533.82L577.40 533.82L574.60 543L573.17 543L571.03 536.35L568.87 543M585.84 543.25Q584.17 543.25 583.11 542.51Q582.06 541.77 581.82 540.42L583.64 540.14Q583.81 540.86 584.43 541.27Q585.04 541.68 585.96 541.68Q586.79 541.68 587.26 541.34Q587.74 541 587.74 540.41Q587.74 540.06 587.57 539.84Q587.40 539.63 586.88 539.43Q586.35 539.23 585.27 538.95Q584.09 538.64 583.40 538.29Q582.70 537.93 582.41 537.46Q582.12 536.99 582.12 536.32Q582.12 535.49 582.56 534.87Q583 534.25 583.81 533.90Q584.61 533.57 585.69 533.57Q586.74 533.57 587.57 533.90Q588.39 534.23 588.90 534.84Q589.41 535.44 589.51 536.26L587.69 536.59Q587.60 535.93 587.07 535.55Q586.55 535.16 585.70 535.13Q584.90 535.10 584.40 535.40Q583.89 535.70 583.89 536.23Q583.89 536.53 584.09 536.74Q584.28 536.96 584.83 537.15Q585.38 537.35 586.46 537.62Q587.62 537.92 588.30 538.28Q588.98 538.64 589.27 539.14Q589.56 539.63 589.56 540.34Q589.56 541.70 588.57 542.47Q587.58 543.25 585.84 543.25M593.39 532.32L591.61 532.32L591.61 530.59L593.39 530.59L593.39 532.32M593.39 543L591.61 543L591.61 533.82L593.39 533.82L593.39 543M608.71 543L606.94 543L606.95 537.28Q606.95 536.28 606.44 535.73Q605.93 535.17 605.09 535.17Q604.58 535.17 604.16 535.41Q603.74 535.64 603.48 536.10Q603.22 536.57 603.22 537.26L603.21 543L601.44 543L601.45 537.31Q601.45 536.31 600.94 535.74Q600.44 535.17 599.59 535.17Q598.74 535.17 598.23 535.75Q597.72 536.33 597.72 537.26L597.72 543L595.93 543L595.93 533.82L597.51 533.82L597.51 534.81Q597.90 534.31 598.47 534Q599.21 533.59 600.15 533.59Q601.12 533.59 601.81 534Q602.46 534.39 602.82 535.06Q603.24 534.38 603.95 533.99Q604.69 533.59 605.60 533.59Q607.09 533.59 607.91 534.48Q608.72 535.38 608.72 536.85L608.71 543M612.88 532.32L611.10 532.32L611.10 530.59L612.88 530.59L612.88 532.32M612.88 543L611.10 543L611.10 533.82L612.88 533.82L612.88 543M617.38 543L615.60 543L615.60 530.50L617.38 530.50L617.38 543M622.52 543.25Q621.50 543.25 620.81 542.88Q620.12 542.50 619.77 541.87Q619.42 541.25 619.42 540.50Q619.42 539.80 619.66 539.28Q619.91 538.75 620.39 538.38Q620.88 538.01 621.58 537.78Q622.20 537.60 622.97 537.47Q623.74 537.33 624.60 537.21Q625.12 537.13 625.65 537.07Q625.60 536.18 625.20 535.72Q624.72 535.21 623.57 535.21Q622.85 535.21 622.25 535.54Q621.64 535.88 621.40 536.65L619.75 536.14Q620.09 534.96 621.04 534.26Q622 533.57 623.59 533.57Q624.82 533.57 625.74 533.99Q626.65 534.41 627.07 535.32Q627.30 535.77 627.35 536.27Q627.40 536.77 627.40 537.35L627.40 543L625.82 543L625.82 541.67Q625.34 542.35 624.69 542.74Q623.80 543.25 622.52 543.25M622.83 541.80Q623.59 541.80 624.13 541.53Q624.68 541.27 625.01 540.85Q625.34 540.43 625.44 539.98Q625.59 539.57 625.61 539.06Q625.62 538.78 625.63 538.55Q625.12 538.62 624.68 538.69Q623.99 538.79 623.43 538.89Q622.88 538.99 622.44 539.12Q622.08 539.25 621.79 539.43Q621.51 539.61 621.34 539.86Q621.18 540.12 621.18 540.48Q621.18 540.84 621.35 541.14Q621.53 541.44 621.90 541.62Q622.26 541.80 622.83 541.80M631.40 543L629.61 543L629.61 533.82L631.19 533.82L631.19 535.29Q631.29 535.11 631.41 534.94Q631.68 534.58 632.04 534.34Q632.39 534.08 632.82 533.94Q633.25 533.80 633.70 533.77Q634.15 533.74 634.56 533.82L634.56 535.49Q634.11 535.37 633.56 535.42Q633.02 535.47 632.56 535.77Q632.12 536.05 631.87 536.45Q631.62 536.85 631.51 537.33Q631.40 537.82 631.40 538.37L631.40 543M638.12 532.32L636.35 532.32L636.35 530.59L638.12 530.59L638.12 532.32M638.12 543L636.35 543L636.35 533.82L638.12 533.82L638.12 543M645.93 541.50L645.93 543Q645.06 543.17 644.23 543.14Q643.39 543.12 642.74 542.82Q642.09 542.52 641.75 541.89Q641.46 541.32 641.44 540.73Q641.41 540.14 641.41 539.39L641.41 535.25L639.65 535.25L639.65 533.82L641.41 533.82L641.41 531.27L643.20 531.27L643.20 533.82L645.93 533.82L645.93 535.25L643.20 535.25L643.20 539.30Q643.20 539.86 643.21 540.26Q643.22 540.67 643.39 540.95Q643.69 541.48 644.36 541.55Q645.03 541.62 645.93 541.50M650.53 547.08L648.84 547.08L650.36 542.96L646.64 533.82L648.49 533.82L651.21 540.72L653.80 533.82L655.60 533.82" fill="#1A1A2E"/>
<path d="M77.51 597.06Q76.99 597.06 76.50 596.90Q76.01 596.74 75.61 596.42Q75.21 596.11 74.94 595.64L76.10 595.06Q76.31 595.47 76.70 595.66Q77.09 595.85 77.52 595.85Q78.06 595.85 78.43 595.66Q78.81 595.48 79.01 595.10Q79.20 594.72 79.20 594.16L79.20 593.55Q79.09 593.65 78.97 593.72Q78.34 594.18 77.41 594.18Q76.51 594.18 75.85 593.73Q75.19 593.28 74.84 592.50Q74.48 591.73 74.48 590.75Q74.48 589.78 74.84 589Q75.20 588.23 75.86 587.79Q76.53 587.34 77.44 587.34Q78.36 587.34 78.99 587.78Q79.18 587.93 79.35 588.10L79.35 587.52L80.46 587.52L80.46 594.17Q80.46 594.43 80.44 594.67Q80.42 594.90 80.37 595.13Q80.23 595.79 79.85 596.21Q79.46 596.64 78.86 596.85Q78.27 597.06 77.51 597.06M77.59 593.05Q78.21 593.05 78.60 592.75Q78.99 592.46 79.17 591.94Q79.35 591.43 79.35 590.75Q79.35 590.08 79.16 589.57Q78.98 589.05 78.60 588.76Q78.22 588.47 77.63 588.47Q77.01 588.47 76.60 588.78Q76.20 589.09 76.01 589.60Q75.81 590.12 75.81 590.75Q75.81 591.40 76.01 591.91Q76.20 592.43 76.59 592.74Q76.99 593.05 77.59 593.05M83.97 594.18Q83.25 594.18 82.76 593.91Q82.27 593.65 82.03 593.21Q81.78 592.76 81.78 592.24Q81.78 591.74 81.95 591.37Q82.12 591 82.47 590.74Q82.81 590.48 83.31 590.32Q83.74 590.19 84.28 590.09Q84.83 590 85.44 589.91Q85.80 589.86 86.17 589.81Q86.14 589.19 85.86 588.86Q85.52 588.50 84.71 588.50Q84.20 588.50 83.77 588.74Q83.35 588.97 83.18 589.52L82.01 589.16Q82.25 588.32 82.93 587.83Q83.60 587.34 84.72 587.34Q85.59 587.34 86.24 587.64Q86.88 587.93 87.18 588.58Q87.34 588.89 87.37 589.25Q87.41 589.60 87.41 590.01L87.41 594L86.30 594L86.30 593.06Q85.96 593.54 85.50 593.81Q84.87 594.18 83.97 594.18M84.19 593.15Q84.72 593.15 85.11 592.97Q85.49 592.78 85.72 592.48Q85.96 592.19 86.03 591.87Q86.13 591.58 86.15 591.22Q86.16 591.02 86.16 590.86Q85.80 590.91 85.49 590.96Q85 591.03 84.61 591.10Q84.22 591.17 83.91 591.26Q83.65 591.35 83.45 591.48Q83.25 591.61 83.14 591.79Q83.02 591.97 83.02 592.22Q83.02 592.48 83.14 592.69Q83.27 592.90 83.53 593.03Q83.79 593.15 84.19 593.15M94.79 594L93.52 594L93.52 590.81Q93.52 590.44 93.46 590.04Q93.39 589.64 93.22 589.30Q93.04 588.95 92.72 588.74Q92.40 588.53 91.88 588.53Q91.54 588.53 91.24 588.64Q90.94 588.76 90.72 589Q90.49 589.25 90.37 589.65Q90.24 590.05 90.24 590.63L90.24 594L88.96 594L88.96 587.52L90.09 587.52L90.09 588.30Q90.36 587.96 90.73 587.72Q91.35 587.35 92.23 587.35Q92.90 587.35 93.36 587.56Q93.81 587.78 94.10 588.13Q94.38 588.48 94.53 588.89Q94.68 589.31 94.74 589.70Q94.79 590.10 94.79 590.40L94.79 594M99.02 597.06Q98.50 597.06 98.01 596.90Q97.52 596.74 97.12 596.42Q96.72 596.11 96.45 595.64L97.61 595.06Q97.82 595.47 98.21 595.66Q98.60 595.85 99.03 595.85Q99.57 595.85 99.94 595.66Q100.32 595.48 100.52 595.10Q100.71 594.72 100.71 594.16L100.71 593.55Q100.60 593.65 100.48 593.72Q99.85 594.18 98.92 594.18Q98.02 594.18 97.36 593.73Q96.70 593.28 96.35 592.50Q95.99 591.73 95.99 590.75Q95.99 589.78 96.35 589Q96.71 588.23 97.37 587.79Q98.04 587.34 98.95 587.34Q99.87 587.34 100.50 587.78Q100.69 587.93 100.86 588.10L100.86 587.52L101.97 587.52L101.97 594.17Q101.97 594.43 101.95 594.67Q101.93 594.90 101.88 595.13Q101.74 595.79 101.36 596.21Q100.97 596.64 100.37 596.85Q99.78 597.06 99.02 597.06M99.10 593.05Q99.72 593.05 100.11 592.75Q100.50 592.46 100.68 591.94Q100.86 591.43 100.86 590.75Q100.86 590.08 100.67 589.57Q100.49 589.05 100.11 588.76Q99.73 588.47 99.14 588.47Q98.52 588.47 98.11 588.78Q97.71 589.09 97.52 589.60Q97.32 590.12 97.32 590.75Q97.32 591.40 97.52 591.91Q97.71 592.43 98.11 592.74Q98.50 593.05 99.10 593.05M109.47 594L108.19 594L108.19 590.81Q108.19 590.44 108.13 590.04Q108.07 589.64 107.89 589.30Q107.71 588.95 107.39 588.74Q107.07 588.53 106.56 588.53Q106.22 588.53 105.92 588.64Q105.62 588.76 105.40 589Q105.17 589.25 105.04 589.65Q104.91 590.05 104.91 590.63L104.91 594L103.64 594L103.64 587.52L104.76 587.52L104.76 588.30Q105.03 587.96 105.41 587.72Q106.03 587.35 106.90 587.35Q107.58 587.35 108.03 587.56Q108.49 587.78 108.77 588.13Q109.06 588.48 109.21 588.89Q109.36 589.31 109.41 589.70Q109.47 590.10 109.47 590.40L109.47 594M112.86 594.18Q112.14 594.18 111.65 593.91Q111.16 593.65 110.92 593.21Q110.67 592.76 110.67 592.24Q110.67 591.74 110.84 591.37Q111.01 591 111.36 590.74Q111.70 590.48 112.20 590.32Q112.63 590.19 113.17 590.09Q113.72 590 114.33 589.91Q114.69 589.86 115.06 589.81Q115.03 589.19 114.75 588.86Q114.41 588.50 113.60 588.50Q113.09 588.50 112.66 588.74Q112.24 588.97 112.07 589.52L110.90 589.16Q111.14 588.32 111.82 587.83Q112.49 587.34 113.61 587.34Q114.48 587.34 115.13 587.64Q115.77 587.93 116.07 588.58Q116.23 588.89 116.26 589.25Q116.30 589.60 116.30 590.01L116.30 594L115.19 594L115.19 593.06Q114.85 593.54 114.39 593.81Q113.76 594.18 112.86 594.18M113.08 593.15Q113.61 593.15 114 592.97Q114.38 592.78 114.61 592.48Q114.85 592.19 114.92 591.87Q115.02 591.58 115.04 591.22Q115.05 591.02 115.05 590.86Q114.69 590.91 114.38 590.96Q113.89 591.03 113.50 591.10Q113.11 591.17 112.80 591.26Q112.54 591.35 112.34 591.48Q112.14 591.61 112.03 591.79Q111.91 591.97 111.91 592.22Q111.91 592.48 112.03 592.69Q112.16 592.90 112.42 593.03Q112.68 593.15 113.08 593.15M126.88 594L125.62 594L125.63 589.96Q125.63 589.26 125.27 588.87Q124.91 588.47 124.32 588.47Q123.96 588.47 123.67 588.64Q123.37 588.80 123.19 589.13Q123 589.46 123 589.95L123 594L121.74 594L121.75 589.99Q121.75 589.28 121.39 588.88Q121.03 588.47 120.43 588.47Q119.84 588.47 119.48 588.88Q119.11 589.29 119.11 589.95L119.11 594L117.85 594L117.85 587.52L118.97 587.52L118.97 588.22Q119.25 587.87 119.65 587.65Q120.17 587.36 120.83 587.36Q121.52 587.36 122.01 587.65Q122.46 587.92 122.71 588.40Q123.01 587.92 123.51 587.64Q124.03 587.36 124.68 587.36Q125.73 587.36 126.31 587.99Q126.88 588.62 126.88 589.66L126.88 594M131.92 590.72L128.32 590.72L128.32 589.71L131.92 589.71L131.92 590.72M134.75 594L133.48 594L133.48 587.52L134.60 587.52L134.60 588.56Q134.67 588.43 134.76 588.31Q134.95 588.05 135.20 587.89Q135.45 587.71 135.75 587.61Q136.05 587.51 136.37 587.49Q136.69 587.47 136.98 587.52L136.98 588.70Q136.66 588.61 136.28 588.65Q135.89 588.68 135.57 588.89Q135.26 589.09 135.08 589.37Q134.91 589.66 134.83 590Q134.75 590.35 134.75 590.73L134.75 594M140.88 594.18Q139.91 594.18 139.18 593.76Q138.45 593.33 138.05 592.58Q137.64 591.82 137.64 590.81Q137.64 589.75 138.04 588.97Q138.44 588.19 139.15 587.77Q139.87 587.34 140.82 587.34Q141.81 587.34 142.50 587.80Q143.20 588.26 143.54 589.10Q143.89 589.95 143.82 591.11L138.99 591.11Q139.06 591.93 139.45 592.41Q139.92 593 140.82 593Q141.40 593 141.83 592.73Q142.26 592.46 142.50 591.97L143.73 592.36Q143.35 593.23 142.59 593.70Q141.82 594.18 140.88 594.18M139.02 590.14L142.53 590.14Q142.45 589.40 142.14 588.99Q141.72 588.45 140.86 588.45Q139.92 588.45 139.45 589.04Q139.12 589.46 139.02 590.14M147.94 594L146.67 594L144.32 587.52L145.59 587.52L147.31 592.43L149.03 587.52L150.30 587.52L147.94 594M152.75 586.46L151.50 586.46L151.50 585.24L152.75 585.24L152.75 586.46M152.75 594L151.50 594L151.50 587.52L152.75 587.52L152.75 594M157.42 594.18Q156.46 594.18 155.73 593.76Q155 593.33 154.59 592.58Q154.19 591.82 154.19 590.81Q154.19 589.75 154.59 588.97Q154.99 588.19 155.70 587.77Q156.42 587.34 157.36 587.34Q158.35 587.34 159.05 587.80Q159.75 588.26 160.09 589.10Q160.44 589.95 160.36 591.11L155.53 591.11Q155.61 591.93 156 592.41Q156.47 593 157.36 593Q157.95 593 158.38 592.73Q158.81 592.46 159.05 591.97L160.28 592.36Q159.90 593.23 159.13 593.70Q158.37 594.18 157.42 594.18M155.56 590.14L159.08 590.14Q159 589.40 158.68 588.99Q158.26 588.45 157.41 588.45Q156.47 588.45 156 589.04Q155.67 589.46 155.56 590.14M163.86 594L162.85 594L160.87 587.51L162.11 587.52L163.47 591.97L164.83 587.52L165.91 587.52L167.28 591.97L168.64 587.52L169.87 587.52L167.89 594L166.89 594L165.37 589.31L163.86 594M171.54 594L170.21 594L170.21 592.67L171.54 592.67L171.54 594M176.46 594L175.18 594L172.83 587.52L174.10 587.52L175.82 592.43L177.54 587.52L178.81 587.52L176.46 594M182.52 594.18Q181.56 594.18 180.83 593.76Q180.10 593.33 179.69 592.58Q179.29 591.82 179.29 590.81Q179.29 589.75 179.69 588.97Q180.09 588.19 180.80 587.77Q181.51 587.34 182.46 587.34Q183.45 587.34 184.15 587.80Q184.84 588.26 185.19 589.10Q185.53 589.95 185.46 591.11L180.63 591.11Q180.70 591.93 181.09 592.41Q181.57 593 182.46 593Q183.05 593 183.48 592.73Q183.91 592.46 184.15 591.97L185.38 592.36Q185 593.23 184.23 593.70Q183.46 594.18 182.52 594.18M180.66 590.14L184.18 590.14Q184.09 589.40 183.78 588.99Q183.36 588.45 182.51 588.45Q181.57 588.45 181.09 589.04Q180.76 589.46 180.66 590.14M188.07 594L186.81 594L186.81 587.52L187.92 587.52L187.92 588.56Q187.99 588.43 188.08 588.31Q188.27 588.05 188.52 587.89Q188.77 587.71 189.07 587.61Q189.37 587.51 189.69 587.49Q190.01 587.47 190.30 587.52L190.30 588.70Q189.99 588.61 189.60 588.65Q189.21 588.68 188.89 588.89Q188.58 589.09 188.40 589.37Q188.23 589.66 188.15 590Q188.07 590.35 188.07 590.73L188.07 594M194.10 594.18Q193.10 594.18 192.40 593.74Q191.71 593.29 191.34 592.52Q190.97 591.74 190.96 590.76Q190.97 589.76 191.35 588.99Q191.73 588.22 192.43 587.78Q193.13 587.34 194.11 587.34Q195.18 587.34 195.93 587.87Q196.68 588.40 196.92 589.31L195.67 589.67Q195.49 589.13 195.06 588.83Q194.64 588.52 194.10 588.52Q193.48 588.52 193.08 588.81Q192.69 589.10 192.49 589.61Q192.30 590.11 192.30 590.76Q192.30 591.76 192.75 592.38Q193.21 593 194.10 593Q194.70 593 195.08 592.72Q195.45 592.44 195.65 591.92L196.92 592.22Q196.60 593.17 195.87 593.67Q195.14 594.18 194.10 594.18M200.84 594.18Q199.87 594.18 199.14 593.76Q198.42 593.33 198.01 592.58Q197.61 591.82 197.61 590.81Q197.61 589.75 198 588.97Q198.40 588.19 199.12 587.77Q199.83 587.34 200.78 587.34Q201.77 587.34 202.47 587.80Q203.16 588.26 203.51 589.10Q203.85 589.95 203.78 591.11L198.95 591.11Q199.02 591.93 199.41 592.41Q199.89 593 200.78 593Q201.37 593 201.80 592.73Q202.23 592.46 202.47 591.97L203.70 592.36Q203.32 593.23 202.55 593.70Q201.78 594.18 200.84 594.18M198.98 590.14L202.50 590.14Q202.41 589.40 202.10 588.99Q201.68 588.45 200.83 588.45Q199.89 588.45 199.41 589.04Q199.08 589.46 198.98 590.14M206.50 594L205.24 594L205.24 585.18L206.50 585.18L206.50 594M209.84 594L208.51 594L208.51 592.67L209.84 592.67L209.84 594M213.57 594.18Q212.85 594.18 212.36 593.91Q211.87 593.65 211.62 593.21Q211.38 592.76 211.38 592.24Q211.38 591.74 211.55 591.37Q211.72 591 212.07 590.74Q212.41 590.48 212.91 590.32Q213.34 590.19 213.88 590.09Q214.43 590 215.04 589.91Q215.40 589.86 215.77 589.81Q215.74 589.19 215.46 588.86Q215.12 588.50 214.31 588.50Q213.80 588.50 213.37 588.74Q212.95 588.97 212.78 589.52L211.61 589.16Q211.85 588.32 212.52 587.83Q213.20 587.34 214.32 587.34Q215.19 587.34 215.84 587.64Q216.48 587.93 216.78 588.58Q216.94 588.89 216.97 589.25Q217.01 589.60 217.01 590.01L217.01 594L215.90 594L215.90 593.06Q215.56 593.54 215.10 593.81Q214.47 594.18 213.57 594.18M213.79 593.15Q214.32 593.15 214.71 592.97Q215.09 592.78 215.32 592.48Q215.56 592.19 215.63 591.87Q215.73 591.58 215.75 591.22Q215.76 591.02 215.76 590.86Q215.40 590.91 215.09 590.96Q214.60 591.03 214.21 591.10Q213.82 591.17 213.51 591.26Q213.25 591.35 213.05 591.48Q212.85 591.61 212.73 591.79Q212.62 591.97 212.62 592.22Q212.62 592.48 212.74 592.69Q212.87 592.90 213.13 593.03Q213.39 593.15 213.79 593.15M221.61 594.18Q220.68 594.18 220.05 593.72Q219.93 593.64 219.82 593.54L219.82 596.88L218.56 596.88L218.56 587.52L219.68 587.52L219.68 588.10Q219.85 587.93 220.05 587.78Q220.67 587.34 221.59 587.34Q222.50 587.34 223.16 587.79Q223.83 588.23 224.19 589Q224.55 589.78 224.55 590.75Q224.55 591.73 224.19 592.50Q223.83 593.28 223.17 593.73Q222.52 594.18 221.61 594.18M221.44 593.05Q222.04 593.05 222.43 592.74Q222.82 592.43 223.02 591.91Q223.21 591.40 223.21 590.75Q223.21 590.12 223.02 589.60Q222.82 589.09 222.42 588.78Q222.02 588.47 221.40 588.47Q220.81 588.47 220.43 588.76Q220.05 589.05 219.86 589.57Q219.68 590.08 219.68 590.75Q219.68 591.43 219.86 591.94Q220.04 592.46 220.43 592.75Q220.82 593.05 221.44 593.05M228.91 594.18Q227.98 594.18 227.35 593.72Q227.23 593.64 227.12 593.54L227.12 596.88L225.86 596.88L225.86 587.52L226.98 587.52L226.98 588.10Q227.14 587.93 227.34 587.78Q227.97 587.34 228.88 587.34Q229.80 587.34 230.46 587.79Q231.12 588.23 231.48 589Q231.84 589.78 231.84 590.75Q231.84 591.73 231.48 592.50Q231.13 593.28 230.47 593.73Q229.81 594.18 228.91 594.18M228.73 593.05Q229.33 593.05 229.73 592.74Q230.12 592.43 230.31 591.91Q230.51 591.40 230.51 590.75Q230.51 590.12 230.31 589.60Q230.12 589.09 229.72 588.78Q229.32 588.47 228.69 588.47Q228.10 588.47 227.72 588.76Q227.34 589.05 227.16 589.57Q226.98 590.08 226.98 590.75Q226.98 591.43 227.16 591.94Q227.34 592.46 227.73 592.75Q228.12 593.05 228.73 593.05" fill="#7D6973"/>
<path d="M909.85 594L908.80 594L908.80 586.80L909.85 586.80L909.85 594M912.40 594L911.35 594L911.35 586.80L912.40 586.80L915.95 592.15L915.95 586.80L917.01 586.80L917.01 594L915.95 594L912.40 588.64L912.40 594M920.67 594L918.41 594L918.41 586.80L920.67 586.80Q920.76 586.80 921.04 586.80Q921.31 586.81 921.56 586.85Q922.41 586.95 922.98 587.45Q923.56 587.95 923.86 588.72Q924.15 589.49 924.15 590.40Q924.15 591.32 923.86 592.09Q923.56 592.86 922.98 593.35Q922.41 593.85 921.56 593.96Q921.31 593.99 921.04 594Q920.76 594 920.67 594M919.48 587.79L919.48 593L920.67 593Q920.84 593 921.07 593Q921.31 592.99 921.49 592.96Q922.04 592.85 922.38 592.48Q922.72 592.11 922.88 591.56Q923.04 591.01 923.04 590.40Q923.04 589.76 922.88 589.22Q922.71 588.68 922.37 588.31Q922.03 587.95 921.49 587.85Q921.31 587.81 921.07 587.80Q920.83 587.79 920.67 587.79L919.48 587.79M929.91 594L925.32 594L925.32 586.80L929.91 586.80L929.91 587.78L926.36 587.78L926.36 589.80L929.32 589.80L929.32 590.79L926.36 590.79L926.36 593.01L929.91 593.01L929.91 594M932.16 594L931.12 594L931.12 586.80L934.02 586.80Q934.13 586.80 934.28 586.81Q934.44 586.82 934.58 586.84Q935.18 586.93 935.58 587.25Q935.99 587.57 936.18 588.04Q936.38 588.52 936.38 589.11Q936.38 589.69 936.18 590.17Q935.99 590.65 935.58 590.97Q935.18 591.28 934.58 591.38Q934.44 591.39 934.28 591.40Q934.13 591.41 934.02 591.41L932.16 591.41L932.16 594M932.16 587.78L932.16 590.42L933.99 590.42Q934.08 590.42 934.21 590.41Q934.33 590.40 934.44 590.38Q934.76 590.30 934.95 590.10Q935.15 589.90 935.24 589.63Q935.32 589.37 935.32 589.11Q935.32 588.84 935.24 588.58Q935.15 588.32 934.95 588.11Q934.76 587.91 934.44 587.84Q934.33 587.80 934.21 587.79Q934.08 587.78 933.99 587.78L932.16 587.78M941.98 594L937.38 594L937.38 586.80L941.98 586.80L941.98 587.78L938.43 587.78L938.43 589.80L941.38 589.80L941.38 590.79L938.43 590.79L938.43 593.01L941.98 593.01L941.98 594M944.24 594L943.18 594L943.18 586.80L944.24 586.80L947.79 592.15L947.79 586.80L948.85 586.80L948.85 594L947.79 594L944.24 588.64L944.24 594M952.50 594L950.25 594L950.25 586.80L952.50 586.80Q952.60 586.80 952.88 586.80Q953.15 586.81 953.40 586.85Q954.25 586.95 954.82 587.45Q955.40 587.95 955.69 588.72Q955.99 589.49 955.99 590.40Q955.99 591.32 955.69 592.09Q955.40 592.86 954.82 593.35Q954.25 593.85 953.40 593.96Q953.15 593.99 952.88 594Q952.60 594 952.50 594M951.32 587.79L951.32 593L952.50 593Q952.67 593 952.91 593Q953.14 592.99 953.32 592.96Q953.88 592.85 954.22 592.48Q954.56 592.11 954.72 591.56Q954.88 591.01 954.88 590.40Q954.88 589.76 954.71 589.22Q954.55 588.68 954.21 588.31Q953.87 587.95 953.32 587.85Q953.14 587.81 952.91 587.80Q952.67 587.79 952.50 587.79L951.32 587.79M961.75 594L957.15 594L957.15 586.80L961.75 586.80L961.75 587.78L958.20 587.78L958.20 589.80L961.15 589.80L961.15 590.79L958.20 590.79L958.20 593.01L961.75 593.01L961.75 594M964.01 594L962.95 594L962.95 586.80L964.01 586.80L967.56 592.15L967.56 586.80L968.62 586.80L968.62 594L967.56 594L964.01 588.64L964.01 594M972.86 594L971.81 594L971.81 587.78L969.42 587.78L969.42 586.80L975.25 586.80L975.25 587.78L972.86 587.78L972.86 594M978.80 594L977.75 594L977.75 586.80L980.66 586.80Q980.77 586.80 980.92 586.81Q981.08 586.82 981.22 586.84Q981.82 586.93 982.22 587.25Q982.63 587.57 982.82 588.04Q983.02 588.52 983.02 589.11Q983.02 589.69 982.82 590.17Q982.63 590.65 982.22 590.97Q981.82 591.28 981.22 591.38Q981.08 591.39 980.92 591.40Q980.76 591.41 980.66 591.41L978.80 591.41L978.80 594M978.80 587.78L978.80 590.42L980.63 590.42Q980.72 590.42 980.85 590.41Q980.97 590.40 981.08 590.38Q981.40 590.30 981.59 590.10Q981.79 589.90 981.88 589.63Q981.96 589.37 981.96 589.11Q981.96 588.84 981.88 588.58Q981.79 588.32 981.59 588.11Q981.40 587.91 981.08 587.84Q980.97 587.80 980.85 587.79Q980.72 587.78 980.63 587.78L978.80 587.78M985.07 594L984.02 594L984.02 586.80L986.93 586.80Q987.04 586.80 987.19 586.81Q987.35 586.82 987.49 586.84Q988.09 586.93 988.49 587.25Q988.89 587.57 989.09 588.04Q989.29 588.52 989.29 589.11Q989.29 589.97 988.85 590.59Q988.56 591 988.07 591.21L989.43 594L988.23 594L986.98 591.41L985.07 591.41L985.07 594M985.07 587.78L985.07 590.42L986.89 590.42Q986.99 590.42 987.12 590.41Q987.24 590.40 987.35 590.38Q987.67 590.30 987.86 590.10Q988.06 589.90 988.14 589.63Q988.23 589.37 988.23 589.11Q988.23 588.84 988.14 588.58Q988.06 588.32 987.86 588.11Q987.67 587.91 987.35 587.84Q987.24 587.80 987.12 587.79Q986.99 587.78 986.89 587.78L985.07 587.78M993.53 594.15Q992.45 594.15 991.69 593.68Q990.93 593.21 990.53 592.36Q990.13 591.51 990.13 590.40Q990.13 589.28 990.53 588.44Q990.93 587.60 991.69 587.12Q992.45 586.65 993.53 586.65Q994.61 586.65 995.37 587.12Q996.13 587.60 996.53 588.44Q996.93 589.28 996.93 590.40Q996.93 591.51 996.53 592.36Q996.13 593.21 995.37 593.68Q994.61 594.15 993.53 594.15M993.53 593.15Q994.30 593.16 994.81 592.82Q995.31 592.47 995.57 591.85Q995.82 591.23 995.82 590.40Q995.82 589.58 995.57 588.96Q995.31 588.34 994.81 588Q994.30 587.65 993.53 587.64Q992.77 587.63 992.26 587.98Q991.75 588.33 991.50 588.95Q991.24 589.58 991.24 590.40Q991.23 591.23 991.49 591.84Q991.74 592.46 992.26 592.80Q992.77 593.15 993.53 593.15M1000.57 594L999.53 594L999.53 587.78L997.13 587.78L997.13 586.80L1002.97 586.80L1002.97 587.78L1000.57 587.78L1000.57 594M1006.77 594.15Q1005.69 594.15 1004.93 593.68Q1004.17 593.21 1003.77 592.36Q1003.37 591.51 1003.37 590.40Q1003.37 589.28 1003.77 588.44Q1004.17 587.60 1004.93 587.12Q1005.69 586.65 1006.77 586.65Q1007.85 586.65 1008.61 587.12Q1009.37 587.60 1009.77 588.44Q1010.17 589.28 1010.17 590.40Q1010.17 591.51 1009.77 592.36Q1009.37 593.21 1008.61 593.68Q1007.85 594.15 1006.77 594.15M1006.77 593.15Q1007.54 593.16 1008.05 592.82Q1008.55 592.47 1008.81 591.85Q1009.06 591.23 1009.06 590.40Q1009.06 589.58 1008.81 588.96Q1008.55 588.34 1008.05 588Q1007.54 587.65 1006.77 587.64Q1006.01 587.63 1005.50 587.98Q1004.99 588.33 1004.74 588.95Q1004.48 589.58 1004.48 590.40Q1004.47 591.23 1004.73 591.84Q1004.98 592.46 1005.50 592.80Q1006.01 593.15 1006.77 593.15M1013.81 594L1012.77 594L1012.77 587.78L1010.37 587.78L1010.37 586.80L1016.21 586.80L1016.21 587.78L1013.81 587.78L1013.81 594M1020.10 594L1019.04 594L1019.04 591.02L1016.61 586.80L1017.83 586.80L1019.57 589.83L1021.32 586.80L1022.54 586.80L1020.10 591.02L1020.10 594M1024.28 594L1023.24 594L1023.24 586.80L1026.15 586.80Q1026.25 586.80 1026.41 586.81Q1026.56 586.82 1026.70 586.84Q1027.30 586.93 1027.71 587.25Q1028.11 587.57 1028.31 588.04Q1028.51 588.52 1028.51 589.11Q1028.51 589.69 1028.31 590.17Q1028.11 590.65 1027.71 590.97Q1027.30 591.28 1026.70 591.38Q1026.56 591.39 1026.41 591.40Q1026.25 591.41 1026.15 591.41L1024.28 591.41L1024.28 594M1024.28 587.78L1024.28 590.42L1026.11 590.42Q1026.21 590.42 1026.33 590.41Q1026.45 590.40 1026.56 590.38Q1026.88 590.30 1027.08 590.10Q1027.27 589.90 1027.36 589.63Q1027.44 589.37 1027.44 589.11Q1027.44 588.84 1027.36 588.58Q1027.27 588.32 1027.08 588.11Q1026.88 587.91 1026.56 587.84Q1026.45 587.80 1026.33 587.79Q1026.21 587.78 1026.11 587.78L1024.28 587.78M1034.11 594L1029.51 594L1029.51 586.80L1034.11 586.80L1034.11 587.78L1030.55 587.78L1030.55 589.80L1033.51 589.80L1033.51 590.79L1030.55 590.79L1030.55 593.01L1034.11 593.01" fill="#7D6973"/></svg>